#N canvas 492 54 426 512 12;
#X declare -path ./lib;
#X obj 41 389 hip~ 5;
#X obj 41 463 dac~;
#X obj 41 309 expr $f1 * 64 + 32;
#X text 185 310 MIDI 32 - 96;
#X obj 41 188 * 100;
#X obj 41 216 int;
#X obj 41 276 / 100;
#X obj 41 245 change;
#X text 100 246 quantize slightly to smooth;
#X obj 68 158 hsl 128 15 0 1 0 0 empty empty empty -2 -8 0 10 -262144
-1 -1 1000 1;
#X text 207 24 basic test theremin scene;
#X obj 209 56 declare -path ./lib;
#X obj 41 28 r #calibrate;
#X obj 41 89 route float on;
#X obj 88 121 s \$0-on;
#X obj 124 389 r \$0-on;
#X obj 94 464 switch~;
#X obj 41 58 list trim;
#X obj 94 393 tgl 15 0 empty empty empty 17 7 0 10 -262144 -1 -1 0
1;
#X obj 41 423 c_spigot;
#N canvas 0 25 314 453 synth 0;
#X obj 81 36 inlet;
#X obj 81 269 osc~;
#X obj 81 135 mtof;
#X obj 164 135 mtof;
#X msg 81 205 \$1 100;
#X obj 81 235 line~;
#X msg 164 166 \$1 100;
#X obj 164 205 line~;
#X obj 81 71 int;
#X obj 81 336 *~ 0.5;
#X text 135 336 quieter;
#X obj 164 235 s_blsaw;
#X obj 164 302 *~ 0.4;
#X obj 81 302 *~ 0.6;
#X obj 164 99 - 12;
#X obj 164 269 lop~ 880;
#X obj 81 369 outlet~;
#X connect 0 0 8 0;
#X connect 1 0 13 0;
#X connect 2 0 4 0;
#X connect 3 0 6 0;
#X connect 4 0 5 0;
#X connect 5 0 1 0;
#X connect 6 0 7 0;
#X connect 7 0 11 0;
#X connect 8 0 2 0;
#X connect 8 0 14 0;
#X connect 9 0 16 0;
#X connect 11 0 15 0;
#X connect 12 0 9 0;
#X connect 13 0 9 0;
#X connect 14 0 3 0;
#X connect 15 0 12 0;
#X restore 41 346 pd synth;
#X connect 0 0 19 0;
#X connect 2 0 20 0;
#X connect 4 0 5 0;
#X connect 5 0 7 0;
#X connect 6 0 2 0;
#X connect 7 0 6 0;
#X connect 9 0 4 0;
#X connect 12 0 17 0;
#X connect 13 0 4 0;
#X connect 13 1 14 0;
#X connect 15 0 19 1;
#X connect 17 0 13 0;
#X connect 18 0 19 1;
#X connect 19 0 1 0;
#X connect 19 0 1 1;
#X connect 19 1 16 0;
#X connect 20 0 0 0;
