#N canvas 725 62 475 710 12;
#X declare -path ./lib;
#X obj 41 503 osc~;
#X obj 41 598 hip~ 5;
#X obj 41 672 dac~;
#X obj 41 331 expr $f1 * 64 + 32;
#X text 185 332 MIDI 32 - 96;
#X obj 124 365 - 12;
#X obj 41 402 mtof;
#X obj 124 392 mtof;
#X obj 41 210 * 100;
#X obj 41 238 int;
#X obj 41 298 / 100;
#X obj 41 267 change;
#X text 100 268 quantize slightly to smooth;
#X obj 68 180 hsl 128 15 0 1 0 0 empty empty empty -2 -8 0 10 -262144
-1 -1 6000 1;
#X msg 41 435 \$1 100;
#X obj 41 151 unpack f f;
#X obj 41 536 *~ 0.8;
#X obj 124 538 *~ 0.2;
#X text 239 122 basic test theremin scene;
#X obj 124 479 s_bltriangle;
#X obj 124 511 lop~ 2000;
#X obj 41 469 line~;
#X msg 124 421 \$1 100;
#X obj 124 447 line~;
#X obj 41 365 int;
#X obj 241 154 declare -path ./lib;
#X obj 41 28 r #calibrate;
#X obj 41 89 route float on;
#X obj 88 121 s \$0-on;
#X obj 246 453 sel 0;
#X obj 246 536 vline~;
#X obj 41 632 *~;
#X obj 296 479 t b b;
#X obj 246 479 t b b;
#X obj 246 426 r \$0-on;
#X msg 417 539 1;
#X msg 348 541 0;
#X obj 348 602 switch~;
#X obj 41 58 list trim;
#X msg 246 508 0 25;
#X msg 296 508 1 25;
#X obj 348 564 pipe 25;
#X obj 41 570 *~ 0.5;
#X text 95 570 quieter;
#X connect 0 0 16 0;
#X connect 1 0 31 0;
#X connect 3 0 24 0;
#X connect 5 0 7 0;
#X connect 6 0 14 0;
#X connect 7 0 22 0;
#X connect 8 0 9 0;
#X connect 9 0 11 0;
#X connect 10 0 3 0;
#X connect 11 0 10 0;
#X connect 13 0 8 0;
#X connect 14 0 21 0;
#X connect 15 0 8 0;
#X connect 16 0 42 0;
#X connect 17 0 42 0;
#X connect 19 0 20 0;
#X connect 20 0 17 0;
#X connect 21 0 0 0;
#X connect 22 0 23 0;
#X connect 23 0 19 0;
#X connect 24 0 6 0;
#X connect 24 0 5 0;
#X connect 26 0 38 0;
#X connect 27 0 15 0;
#X connect 27 1 28 0;
#X connect 29 0 33 0;
#X connect 29 1 32 0;
#X connect 30 0 31 1;
#X connect 31 0 2 0;
#X connect 31 0 2 1;
#X connect 32 0 40 0;
#X connect 32 1 35 0;
#X connect 33 0 39 0;
#X connect 33 1 36 0;
#X connect 34 0 29 0;
#X connect 35 0 37 0;
#X connect 36 0 41 0;
#X connect 38 0 27 0;
#X connect 39 0 30 0;
#X connect 40 0 30 0;
#X connect 41 0 37 0;
#X connect 42 0 1 0;
