#N canvas 492 54 473 693 12;
#X declare -path ./lib;
#X obj 41 481 osc~;
#X obj 41 576 hip~ 5;
#X obj 41 650 dac~;
#X obj 41 309 expr $f1 * 64 + 32;
#X text 185 310 MIDI 32 - 96;
#X obj 41 380 mtof;
#X obj 124 370 mtof;
#X obj 41 188 * 100;
#X obj 41 216 int;
#X obj 41 276 / 100;
#X obj 41 245 change;
#X text 100 246 quantize slightly to smooth;
#X obj 68 158 hsl 128 15 0 1 0 0 empty empty empty -2 -8 0 10 -262144
-1 -1 5900 1;
#X msg 41 413 \$1 100;
#X text 239 122 basic test theremin scene;
#X obj 41 447 line~;
#X msg 124 399 \$1 100;
#X obj 124 425 line~;
#X obj 41 343 int;
#X obj 241 154 declare -path ./lib;
#X obj 41 28 r #calibrate;
#X obj 41 89 route float on;
#X obj 88 121 s \$0-on;
#X obj 246 431 sel 0;
#X obj 246 514 vline~;
#X obj 41 610 *~;
#X obj 296 457 t b b;
#X obj 246 457 t b b;
#X obj 246 404 r \$0-on;
#X msg 417 517 1;
#X msg 348 519 0;
#X obj 348 580 switch~;
#X obj 41 58 list trim;
#X msg 246 486 0 25;
#X msg 296 486 1 25;
#X obj 348 542 pipe 25;
#X obj 41 548 *~ 0.5;
#X text 95 548 quieter;
#X obj 124 457 s_blsaw;
#X obj 124 516 *~ 0.4;
#X obj 41 514 *~ 0.6;
#X obj 123 343 - 12;
#X obj 124 489 lop~ 880;
#X obj 221 407 tgl 15 0 empty empty empty 17 7 0 10 -262144 -1 -1 1
1;
#X connect 0 0 40 0;
#X connect 1 0 25 0;
#X connect 3 0 18 0;
#X connect 5 0 13 0;
#X connect 6 0 16 0;
#X connect 7 0 8 0;
#X connect 8 0 10 0;
#X connect 9 0 3 0;
#X connect 10 0 9 0;
#X connect 12 0 7 0;
#X connect 13 0 15 0;
#X connect 15 0 0 0;
#X connect 16 0 17 0;
#X connect 17 0 38 0;
#X connect 18 0 5 0;
#X connect 18 0 41 0;
#X connect 20 0 32 0;
#X connect 21 0 7 0;
#X connect 21 1 22 0;
#X connect 23 0 27 0;
#X connect 23 1 26 0;
#X connect 24 0 25 1;
#X connect 25 0 2 0;
#X connect 25 0 2 1;
#X connect 26 0 34 0;
#X connect 26 1 29 0;
#X connect 27 0 33 0;
#X connect 27 1 30 0;
#X connect 28 0 23 0;
#X connect 29 0 31 0;
#X connect 30 0 35 0;
#X connect 32 0 21 0;
#X connect 33 0 24 0;
#X connect 34 0 24 0;
#X connect 35 0 31 0;
#X connect 36 0 1 0;
#X connect 38 0 42 0;
#X connect 39 0 36 0;
#X connect 40 0 36 0;
#X connect 41 0 6 0;
#X connect 42 0 39 0;
#X connect 43 0 23 0;
