#N canvas 364 144 550 768 12;
#X obj 64 28 inlet;
#X obj 73 593 outlet;
#X obj 72 461 +;
#X obj 72 410 * 0.01;
#X obj 137 507 f;
#X text 167 506 current value;
#X obj 115 544 * 0.99;
#X obj 109 328 d-default \$1 0.95;
#X obj 109 363 d-1-;
#X obj 64 70 t f b f;
#X obj 176 560 s \$0-current;
#X obj 151 66 r \$0-current;
#X obj 214 146 sel 0 1;
#X obj 163 253 s \$0-factor;
#X obj 164 185 d-default \$1 0.95;
#X obj 314 185 d-default \$2 0.99;
#X obj 119 114 <;
#X floatatom 284 328 5 0 0 0 - - -;
#X obj 108 299 r \$0-factor;
#X obj 140 90 * 1;
#X connect 0 0 9 0;
#X connect 2 0 1 0;
#X connect 2 0 4 1;
#X connect 3 0 2 0;
#X connect 4 0 6 0;
#X connect 4 0 10 0;
#X connect 6 0 2 1;
#X connect 7 0 6 1;
#X connect 7 0 8 0;
#X connect 8 0 3 1;
#X connect 9 0 3 0;
#X connect 9 1 4 0;
#X connect 9 2 16 0;
#X connect 11 0 19 0;
#X connect 12 0 14 0;
#X connect 12 1 15 0;
#X connect 14 0 13 0;
#X connect 15 0 13 0;
#X connect 16 0 12 0;
#X connect 18 0 7 0;
#X connect 18 0 17 0;
#X connect 19 0 16 1;
