#N canvas 397 297 478 481 12;
#X obj 31 29 inlet;
#X obj 108 86 - \$1;
#X obj 31 88 - \$1;
#X obj 31 135 /;
#X obj 109 17 loadbang;
#X obj 111 154 loadbang;
#X obj 31 241 *;
#X obj 31 269 + \$3;
#X obj 31 317 outlet;
#X obj 109 52 \$2;
#X floatatom 95 121 5 0 0 0 - - -;
#X floatatom 153 124 5 0 0 0 - - -;
#X floatatom 50 172 5 0 0 0 - - -;
#X floatatom 101 309 5 0 0 0 - - -;
#X obj 111 222 - \$3;
#X obj 111 187 \$4;
#X floatatom 133 258 5 0 0 0 - - -;
#X obj 251 44 inlet;
#X obj 312 52 inlet;
#X obj 251 86 t b f;
#X connect 0 0 2 0;
#X connect 1 0 3 1;
#X connect 1 0 11 0;
#X connect 2 0 3 0;
#X connect 2 0 10 0;
#X connect 3 0 6 0;
#X connect 3 0 12 0;
#X connect 4 0 9 0;
#X connect 5 0 15 0;
#X connect 6 0 7 0;
#X connect 7 0 8 0;
#X connect 7 0 13 0;
#X connect 9 0 1 0;
#X connect 14 0 6 1;
#X connect 14 0 16 0;
#X connect 15 0 14 0;
#X connect 17 0 19 0;
#X connect 18 0 15 0;
#X connect 19 0 15 0;
#X connect 19 1 14 1;
