#N canvas 196 25 439 677 12;
#X obj 71 29 r #brightness;
#X obj 71 66 unpack;
#X floatatom 71 140 6 0 0 0 norm - -;
#X floatatom 110 106 6 0 0 0 raw - -;
#X text 125 139 0 - 1;
#X text 165 105 EXIF -16 - 16?;
#X text 186 28 input: brightness values;
#X obj 183 535 +~;
#X obj 29 370 +~;
#X obj 164 370 +~;
#X obj 309 370 +~;
#X obj 94 504 +~;
#X obj 47 341 osc~ \$1;
#X obj 182 341 osc~ \$1;
#X obj 327 341 osc~ \$1;
#X obj 183 633 dac~;
#X obj 263 188 * 100;
#X obj 164 313 osc~ \$1;
#X obj 29 313 osc~ \$1;
#X obj 29 429 +~;
#X obj 164 429 +~;
#X obj 309 429 +~;
#X floatatom 263 215 5 0 0 0 - - -;
#X obj 47 398 osc~ 90;
#X obj 309 313 osc~ 109;
#X obj 327 398 osc~ 93;
#X obj 182 398 osc~ 91;
#X obj 183 566 hip~ 5;
#X obj 246 542 r #volume;
#X obj 246 573 line~;
#X obj 183 594 *~;
#X obj 334 542 loadbang;
#X msg 334 567 1 100;
#X obj 263 245 t f f f;
#X obj 71 245 t f f f;
#X obj 309 460 *~ 0.33;
#X obj 164 460 *~ 0.33;
#X obj 29 460 *~ 0.33;
#X connect 0 0 1 0;
#X connect 1 0 2 0;
#X connect 1 1 3 0;
#X connect 2 0 16 0;
#X connect 2 0 34 0;
#X connect 7 0 27 0;
#X connect 8 0 19 0;
#X connect 9 0 20 0;
#X connect 10 0 21 0;
#X connect 11 0 7 0;
#X connect 12 0 8 1;
#X connect 13 0 9 1;
#X connect 14 0 10 1;
#X connect 16 0 22 0;
#X connect 17 0 9 0;
#X connect 18 0 8 0;
#X connect 19 0 37 0;
#X connect 20 0 36 0;
#X connect 21 0 35 0;
#X connect 22 0 33 0;
#X connect 23 0 19 1;
#X connect 24 0 10 0;
#X connect 25 0 21 1;
#X connect 26 0 20 1;
#X connect 27 0 30 0;
#X connect 28 0 29 0;
#X connect 29 0 30 1;
#X connect 30 0 15 0;
#X connect 30 0 15 1;
#X connect 31 0 32 0;
#X connect 32 0 29 0;
#X connect 33 0 18 0;
#X connect 33 1 17 0;
#X connect 33 2 24 0;
#X connect 34 0 12 0;
#X connect 34 1 13 0;
#X connect 34 2 14 0;
#X connect 35 0 7 1;
#X connect 36 0 11 1;
#X connect 37 0 11 0;
