#N canvas 54 25 432 653 12;
#X declare -path ./lib;
#X obj 71 29 r #brightness;
#X obj 71 66 unpack;
#X floatatom 71 140 6 0 0 0 norm - -;
#X floatatom 110 106 6 0 0 0 raw - -;
#X text 125 139 0 - 1;
#X text 165 105 EXIF -16 - 16?;
#X text 186 28 input: brightness values;
#X obj 167 518 +~;
#X obj 29 350 +~;
#X obj 164 350 +~;
#X obj 309 350 +~;
#X obj 69 487 +~;
#X obj 47 321 osc~ \$1;
#X obj 182 321 osc~ \$1;
#X obj 327 321 osc~ \$1;
#X obj 263 168 * 100;
#X obj 164 293 osc~ \$1;
#X obj 29 293 osc~ \$1;
#X obj 29 409 +~;
#X obj 164 409 +~;
#X obj 309 409 +~;
#X floatatom 263 195 5 0 0 0 - - -;
#X obj 47 378 osc~ 90;
#X obj 309 293 osc~ 109;
#X obj 327 378 osc~ 93;
#X obj 182 378 osc~ 91;
#X obj 263 225 t f f f;
#X obj 71 225 t f f f;
#X obj 69 551 e_pan 0.3;
#X obj 167 551 e_pan 0.6;
#X obj 164 440 *~ 0.1;
#X obj 29 440 *~ 0.1;
#X obj 309 440 *~ 0.1;
#X obj 238 66 declare -path ./lib;
#X obj 105 609 stereoout~;
#X connect 0 0 1 0;
#X connect 1 0 2 0;
#X connect 1 1 3 0;
#X connect 2 0 15 0;
#X connect 2 0 27 0;
#X connect 7 0 29 0;
#X connect 8 0 18 0;
#X connect 9 0 19 0;
#X connect 10 0 20 0;
#X connect 11 0 7 0;
#X connect 11 0 28 0;
#X connect 12 0 8 1;
#X connect 13 0 9 1;
#X connect 14 0 10 1;
#X connect 15 0 21 0;
#X connect 16 0 9 0;
#X connect 17 0 8 0;
#X connect 18 0 31 0;
#X connect 19 0 30 0;
#X connect 20 0 32 0;
#X connect 21 0 26 0;
#X connect 22 0 18 1;
#X connect 23 0 10 0;
#X connect 24 0 20 1;
#X connect 25 0 19 1;
#X connect 26 0 17 0;
#X connect 26 1 16 0;
#X connect 26 2 23 0;
#X connect 27 0 12 0;
#X connect 27 1 13 0;
#X connect 27 2 14 0;
#X connect 28 0 34 0;
#X connect 28 1 34 1;
#X connect 29 0 34 0;
#X connect 29 1 34 1;
#X connect 30 0 11 1;
#X connect 31 0 11 0;
#X connect 32 0 7 1;
