#N canvas 272 51 415 516 12;
#X declare -path ./lib;
#X obj 54 15 r #brightness;
#X obj 54 52 unpack;
#X text 169 14 input: brightness values;
#X text 222 460 output: stereo;
#X obj 54 86 * 100;
#X obj 54 114 int;
#X obj 54 143 change;
#X obj 233 51 declare -path ./lib;
#X text 113 116 quantize to 0 - 100;
#N canvas 0 25 489 406 trigger 0;
#X obj 47 42 inlet;
#X obj 100 328 outlet;
#X msg 47 210 0;
#X msg 100 210 1;
#X obj 100 242 change;
#X floatatom 100 270 5 0 0 0 - - -;
#X msg 100 296 bang;
#X floatatom 47 142 5 0 0 0 - - -;
#X obj 47 183 moses 50;
#X text 127 79 smooth;
#X floatatom 211 142 5 0 0 0 - - -;
#X msg 211 80 50;
#X obj 211 42 loadbang;
#X text 257 141 moving threshold;
#X text 150 209 trigger on transition;
#X obj 47 80 m_mavg 8;
#X obj 211 109 m_mavg 70;
#X floatatom 100 42 5 0 0 0 - - -;
#X floatatom 271 81 5 0 0 0 - - -;
#X connect 0 0 15 0;
#X connect 2 0 4 0;
#X connect 3 0 4 0;
#X connect 4 0 5 0;
#X connect 5 0 6 0;
#X connect 6 0 1 0;
#X connect 7 0 8 0;
#X connect 8 0 2 0;
#X connect 8 1 3 0;
#X connect 10 0 8 1;
#X connect 11 0 16 0;
#X connect 12 0 11 0;
#X connect 15 0 7 0;
#X connect 15 0 16 0;
#X connect 16 0 10 0;
#X connect 17 0 15 1;
#X connect 18 0 16 1;
#X restore 54 221 pd trigger;
#X obj 137 460 stereoout~;
#N canvas 0 25 407 409 delay 0;
#X obj 70 205 +~;
#X msg 137 111 200;
#X obj 103 172 *~ 0.5;
#X obj 162 239 delwrite~ \$0-d2 1000;
#X obj 70 273 e_pan 0.3;
#X obj 163 273 e_pan 0.7;
#X obj 70 338 outlet~;
#X obj 223 338 outlet~;
#X obj 71 35 inlet~;
#X obj 70 239 *~ 1;
#X obj 71 72 *~ 0.8;
#X msg 103 111 180;
#X obj 103 143 delread~ \$0-d2 180;
#X connect 0 0 3 0;
#X connect 0 0 9 0;
#X connect 1 0 12 0;
#X connect 2 0 0 1;
#X connect 2 0 5 0;
#X connect 4 0 6 0;
#X connect 4 1 7 0;
#X connect 5 0 6 0;
#X connect 5 1 7 0;
#X connect 8 0 10 0;
#X connect 9 0 4 0;
#X connect 10 0 0 0;
#X connect 11 0 12 0;
#X connect 12 0 2 0;
#X restore 54 390 pd delay;
#N canvas 0 25 407 409 delay 0;
#X obj 70 205 +~;
#X msg 137 111 200;
#X obj 103 172 *~ 0.5;
#X obj 70 338 outlet~;
#X obj 223 338 outlet~;
#X obj 71 35 inlet~;
#X obj 70 239 *~ 1;
#X obj 71 72 *~ 0.8;
#X msg 103 111 180;
#X obj 70 273 e_pan 0.2;
#X obj 163 273 e_pan 0.8;
#X obj 103 143 delread~ \$0-d1 180;
#X obj 162 239 delwrite~ \$0-d1 1000;
#X connect 0 0 6 0;
#X connect 0 0 12 0;
#X connect 1 0 11 0;
#X connect 2 0 0 1;
#X connect 2 0 10 0;
#X connect 5 0 7 0;
#X connect 6 0 9 0;
#X connect 7 0 0 0;
#X connect 8 0 11 0;
#X connect 9 0 3 0;
#X connect 9 1 4 0;
#X connect 10 0 3 0;
#X connect 10 1 4 0;
#X connect 11 0 2 0;
#X restore 243 390 pd delay;
#N canvas 0 25 437 261 root 0;
#X obj 65 75 random 100;
#X obj 65 104 moses 10;
#X obj 65 172 c_nstep 8;
#X obj 149 104 loadbang;
#X msg 221 104 bang;
#X msg 65 138 bang;
#X obj 149 135 u_listrandom 24 8;
#X obj 65 46 inlet;
#X text 150 44 change root 10% of the time;
#X text 290 137 random roots;
#X obj 65 202 s \$0-root;
#X connect 0 0 1 0;
#X connect 1 0 5 0;
#X connect 2 0 10 0;
#X connect 3 0 6 0;
#X connect 4 0 6 0;
#X connect 5 0 2 0;
#X connect 6 0 2 1;
#X connect 7 0 0 0;
#X restore 86 293 pd root note;
#N canvas 0 25 388 435 lead 0;
#X obj 92 179 c_nstep 8;
#X obj 152 115 loadbang;
#X msg 92 149 bang;
#X obj 92 251 + 12;
#N canvas 271 176 321 349 lead 0;
#X obj 94 63 inlet;
#X obj 94 248 outlet~;
#X obj 94 135 poly 6 0;
#X obj 94 204 clone -s 1 voice 6;
#X obj 94 101 makenote 127 300;
#X obj 94 168 pack f f f;
#X connect 0 0 4 0;
#X connect 2 0 5 0;
#X connect 2 1 5 1;
#X connect 2 2 5 2;
#X connect 3 0 1 0;
#X connect 4 0 2 0;
#X connect 4 1 2 1;
#X connect 5 0 3 0;
#X restore 92 291 pd lead synth;
#X msg 152 147 67 55 65 53 64 52 60 48;
#X obj 117 218 r \$0-root;
#X obj 92 79 inlet;
#X obj 92 329 outlet~;
#X connect 0 0 3 0;
#X connect 1 0 5 0;
#X connect 2 0 0 0;
#X connect 3 0 4 0;
#X connect 4 0 8 0;
#X connect 5 0 0 1;
#X connect 6 0 3 1;
#X connect 7 0 2 0;
#X restore 243 348 pd lead seq;
#N canvas 216 45 572 658 bass 0;
#X floatatom 87 323 5 0 0 0 - - -;
#X obj 87 218 c_nstep 8;
#X obj 147 154 loadbang;
#X obj 105 260 notein;
#X obj 105 293 stripnote;
#X msg 147 186 48 60 52 64 53 65 55 67;
#X obj 87 432 + 12;
#X text 181 271 MIDI;
#X obj 112 393 - 24;
#N canvas 0 25 679 522 bass 0;
#X obj 171 231 s_blsquare;
#X obj 171 130 mtof;
#X floatatom 453 180 5 0 0 0 - - -;
#X floatatom 402 180 5 0 0 0 - - -;
#X obj 233 349 bob~;
#X floatatom 434 232 5 0 0 0 - - -;
#X obj 204 197 sig~ 0.75;
#X obj 84 193 osc~;
#X obj 316 231 s_bltriangle;
#X obj 316 169 - 0.25;
#X obj 84 128 - 12;
#X obj 84 160 mtof;
#X obj 402 115 loadbang;
#X msg 402 153 0.2;
#X msg 453 153 1.44;
#X obj 434 264 sig~ 3;
#X obj 84 229 *~ 0.6;
#X obj 171 265 *~ 0.8;
#X obj 316 262 *~ 0.6;
#X obj 61 78 t f f f;
#X obj 61 357 makenote 127 500;
#X obj 61 35 inlet;
#X obj 233 476 outlet~;
#X obj 233 439 *~;
#X obj 512 224 inlet;
#X obj 512 315 line~;
#X obj 577 225 loadbang;
#X msg 577 262 1200;
#X msg 512 262 \$1 100;
#X obj 251 399 c_adsr 0.25 100 200 0.25 500;
#X connect 0 0 17 0;
#X connect 1 0 0 0;
#X connect 1 0 9 0;
#X connect 2 0 8 1;
#X connect 3 0 0 2;
#X connect 4 0 23 0;
#X connect 5 0 15 0;
#X connect 6 0 0 1;
#X connect 7 0 16 0;
#X connect 8 0 18 0;
#X connect 9 0 8 0;
#X connect 10 0 11 0;
#X connect 11 0 7 0;
#X connect 12 0 13 0;
#X connect 12 0 14 0;
#X connect 13 0 3 0;
#X connect 14 0 2 0;
#X connect 15 0 4 1;
#X connect 16 0 4 0;
#X connect 17 0 4 0;
#X connect 18 0 4 0;
#X connect 19 0 20 0;
#X connect 19 1 10 0;
#X connect 19 2 1 0;
#X connect 20 1 29 0;
#X connect 21 0 19 0;
#X connect 23 0 22 0;
#X connect 24 0 28 0;
#X connect 25 0 4 1;
#X connect 26 0 27 0;
#X connect 27 0 25 0;
#X connect 28 0 25 0;
#X connect 29 0 23 1;
#X restore 87 467 pd bass synth;
#N canvas 0 25 357 443 autometro 0;
#X obj 99 100 timer;
#X obj 99 69 t b b;
#X floatatom 99 131 5 0 0 0 - - -;
#X obj 92 285 tgl 15 0 empty empty empty 17 7 0 10 -262144 -1 -1 1
1;
#X obj 92 345 bng 15 250 50 0 empty empty empty 17 7 0 10 -262144 -1
-1;
#X obj 152 284 line;
#X msg 152 231 \$1 100;
#X obj 152 200 moses 1000;
#X obj 99 38 inlet;
#X obj 92 254 loadbang;
#X obj 92 372 outlet;
#X obj 92 315 metro 500;
#X obj 99 166 moses 50;
#X connect 0 0 2 0;
#X connect 1 0 0 0;
#X connect 1 1 0 1;
#X connect 2 0 12 0;
#X connect 3 0 11 0;
#X connect 4 0 10 0;
#X connect 5 0 11 1;
#X connect 6 0 5 0;
#X connect 7 0 6 0;
#X connect 8 0 1 0;
#X connect 9 0 3 0;
#X connect 11 0 4 0;
#X connect 12 1 7 0;
#X restore 87 124 pd autometro;
#N canvas 0 25 334 419 activitygain 0;
#X obj 64 99 timer;
#X obj 64 69 t b b;
#X floatatom 64 134 5 0 0 0 - - -;
#X obj 172 272 delay 1000;
#X obj 87 351 outlet;
#X obj 64 37 inlet;
#X msg 172 237 bang;
#X obj 64 166 moses 5000;
#X msg 126 237 stop;
#X obj 64 198 t b b b;
#X msg 172 308 0 5000;
#X msg 87 304 1 5000;
#X connect 0 0 2 0;
#X connect 1 0 0 0;
#X connect 1 1 0 1;
#X connect 2 0 7 0;
#X connect 3 0 10 0;
#X connect 5 0 1 0;
#X connect 6 0 3 0;
#X connect 7 0 9 0;
#X connect 7 1 6 0;
#X connect 8 0 3 0;
#X connect 9 0 6 0;
#X connect 9 1 11 0;
#X connect 9 2 8 0;
#X connect 10 0 4 0;
#X connect 11 0 4 0;
#X restore 391 286 pd activitygain;
#X obj 87 530 *~;
#X obj 391 480 line~;
#X obj 175 431 m_scale 0 100 200 3000;
#X obj 112 364 r \$0-root;
#X obj 359 65 t b b;
#X obj 359 35 inlet;
#X obj 87 567 outlet~;
#X obj 468 37 inlet;
#X connect 0 0 6 0;
#X connect 1 0 0 0;
#X connect 2 0 5 0;
#X connect 3 0 4 0;
#X connect 3 1 4 1;
#X connect 4 0 0 0;
#X connect 5 0 1 1;
#X connect 6 0 9 0;
#X connect 8 0 6 1;
#X connect 9 0 12 0;
#X connect 10 0 1 0;
#X connect 11 0 13 0;
#X connect 12 0 18 0;
#X connect 13 0 12 1;
#X connect 14 0 9 1;
#X connect 15 0 8 0;
#X connect 16 0 10 0;
#X connect 16 1 11 0;
#X connect 17 0 16 0;
#X connect 19 0 14 0;
#X restore 54 348 pd bass seq;
#N canvas 0 25 489 406 trigger 0;
#X obj 47 42 inlet;
#X obj 100 328 outlet;
#X msg 47 210 0;
#X msg 100 210 1;
#X obj 100 242 change;
#X floatatom 100 270 5 0 0 0 - - -;
#X msg 100 296 bang;
#X floatatom 47 142 5 0 0 0 - - -;
#X obj 47 183 moses 50;
#X text 127 79 smooth;
#X floatatom 211 142 5 0 0 0 - - -;
#X msg 211 80 50;
#X obj 211 42 loadbang;
#X text 257 141 moving threshold;
#X text 150 209 trigger on transition;
#X floatatom 100 42 5 0 0 0 - - -;
#X floatatom 271 81 5 0 0 0 - - -;
#X obj 211 109 m_mavg 50;
#X obj 47 80 m_mavg 4;
#X connect 0 0 18 0;
#X connect 2 0 4 0;
#X connect 3 0 4 0;
#X connect 4 0 5 0;
#X connect 5 0 6 0;
#X connect 6 0 1 0;
#X connect 7 0 8 0;
#X connect 8 0 2 0;
#X connect 8 1 3 0;
#X connect 10 0 8 1;
#X connect 11 0 17 0;
#X connect 12 0 11 0;
#X connect 15 0 18 1;
#X connect 16 0 17 1;
#X connect 17 0 10 0;
#X connect 18 0 7 0;
#X connect 18 0 17 0;
#X restore 243 221 pd trigger;
#X obj 54 259 t b b;
#X obj 54 178 t f f f;
#X connect 0 0 1 0;
#X connect 1 0 4 0;
#X connect 4 0 5 0;
#X connect 5 0 6 0;
#X connect 6 0 18 0;
#X connect 9 0 17 0;
#X connect 11 0 10 0;
#X connect 11 1 10 1;
#X connect 12 0 10 0;
#X connect 12 1 10 1;
#X connect 14 0 12 0;
#X connect 15 0 11 0;
#X connect 16 0 14 0;
#X connect 17 0 15 0;
#X connect 17 1 13 0;
#X connect 18 0 9 0;
#X connect 18 1 15 1;
#X connect 18 2 16 0;
