#N canvas 0 25 334 457 12;
#X obj 124 243 c_ead 100 200;
#X obj 106 277 *~;
#X obj 106 213 osc~;
#X obj 95 148 mtof;
#X obj 95 181 t b f;
#X obj 95 46 inlet;
#X obj 106 343 outlet~;
#X obj 95 116 stripnote;
#X obj 95 83 unpack f f;
#X obj 106 306 *~ 0.25;
#X connect 0 0 1 1;
#X connect 1 0 9 0;
#X connect 2 0 1 0;
#X connect 3 0 4 0;
#X connect 4 0 0 0;
#X connect 4 1 2 0;
#X connect 5 0 8 0;
#X connect 7 0 3 0;
#X connect 8 0 7 0;
#X connect 8 1 7 1;
#X connect 9 0 6 0;
