#N canvas 725 108 458 624 12;
#X obj 197 388 osc~;
#X obj 280 388 phasor~;
#X obj 197 507 hip~ 5;
#X obj 197 581 dac~;
#X obj 51 20 r #brightness;
#X obj 197 248 expr $f1 * 64 + 32;
#X text 341 249 MIDI 32 - 96;
#X obj 280 322 - 12;
#X obj 197 353 mtof;
#X obj 280 354 mtof;
#X obj 51 107 * 100;
#X obj 51 135 int;
#X obj 51 195 / 100;
#X obj 51 164 change;
#X obj 111 333 delay 1000;
#X msg 111 304 stop;
#X msg 51 363 1 100;
#X obj 51 225 t b f b;
#X msg 111 362 0 1000;
#X obj 51 406 line~;
#X obj 197 546 *~;
#X text 110 165 quantize slightly to smooth;
#X text 97 405 envelope;
#X obj 78 77 hsl 128 15 0 1 0 0 empty empty empty -2 -8 0 10 -262144
-1 -1 5200 1;
#X obj 197 303 line;
#X msg 197 276 \$1 100;
#X obj 51 48 unpack f f;
#X obj 280 420 -~ 0.5;
#X obj 280 449 *~ 2;
#X obj 197 421 *~ 0.8;
#X obj 280 478 *~ 0.2;
#X text 249 19 basic test theremin scene;
#X connect 0 0 29 0;
#X connect 1 0 27 0;
#X connect 2 0 20 0;
#X connect 4 0 26 0;
#X connect 5 0 25 0;
#X connect 7 0 9 0;
#X connect 8 0 0 0;
#X connect 9 0 1 0;
#X connect 10 0 11 0;
#X connect 11 0 13 0;
#X connect 12 0 17 0;
#X connect 13 0 12 0;
#X connect 14 0 18 0;
#X connect 15 0 14 0;
#X connect 16 0 19 0;
#X connect 17 0 14 0;
#X connect 17 0 16 0;
#X connect 17 1 5 0;
#X connect 17 2 15 0;
#X connect 18 0 19 0;
#X connect 19 0 20 1;
#X connect 20 0 3 0;
#X connect 20 0 3 1;
#X connect 23 0 10 0;
#X connect 24 0 8 0;
#X connect 24 0 7 0;
#X connect 25 0 24 0;
#X connect 26 0 10 0;
#X connect 27 0 28 0;
#X connect 28 0 30 0;
#X connect 29 0 2 0;
#X connect 30 0 2 0;
