#N canvas 332 138 562 564 12;
#X declare -path ./lib;
#X obj 51 20 r #brightness;
#X obj 51 107 * 100;
#X obj 51 135 int;
#X obj 51 195 / 100;
#X obj 51 164 change;
#X text 110 165 quantize slightly to smooth;
#X obj 78 77 hsl 128 15 0 1 0 0 empty empty empty -2 -8 0 10 -262144
-1 -1 0 1;
#X obj 51 48 unpack f f;
#X obj 251 51 declare -path ./lib;
#X obj 51 482 e_reverb;
#X obj 224 260 g_hsl dry 0 1;
#X obj 224 300 g_hsl amp 0 100;
#X obj 224 340 g_hsl hall 0 100;
#X obj 224 380 g_hsl freq 20 22050;
#X obj 224 420 g_hsl damp 0 100;
#X obj 224 197 loadbang;
#N canvas 0 25 460 473 synths 0;
#X obj 51 40 inlet;
#X obj 197 422 outlet~;
#X obj 197 262 osc~;
#X obj 197 346 hip~ 5;
#X obj 197 96 expr $f1 * 64 + 32;
#X text 341 97 MIDI 32 - 96;
#X obj 280 124 - 12;
#X obj 197 161 mtof;
#X obj 280 151 mtof;
#X obj 111 181 delay 1000;
#X msg 111 152 stop;
#X msg 51 211 1 100;
#X obj 51 73 t b f b;
#X msg 111 210 0 1000;
#X obj 51 254 line~;
#X obj 197 389 *~;
#X text 97 253 envelope;
#X msg 197 194 \$1 100;
#X obj 280 238 s_bltriangle;
#X obj 280 270 lop~ 2000;
#X obj 197 228 line~;
#X msg 280 180 \$1 100;
#X obj 280 206 line~;
#X obj 197 124 int;
#X obj 197 295 *~ 0.9;
#X obj 280 298 *~ 0.3;
#X connect 0 0 12 0;
#X connect 2 0 24 0;
#X connect 3 0 15 0;
#X connect 4 0 23 0;
#X connect 6 0 8 0;
#X connect 7 0 17 0;
#X connect 8 0 21 0;
#X connect 9 0 13 0;
#X connect 10 0 9 0;
#X connect 11 0 14 0;
#X connect 12 0 9 0;
#X connect 12 0 11 0;
#X connect 12 1 4 0;
#X connect 12 2 10 0;
#X connect 13 0 14 0;
#X connect 14 0 15 1;
#X connect 15 0 1 0;
#X connect 17 0 20 0;
#X connect 18 0 19 0;
#X connect 19 0 25 0;
#X connect 20 0 2 0;
#X connect 21 0 22 0;
#X connect 22 0 18 0;
#X connect 23 0 7 0;
#X connect 23 0 6 0;
#X connect 24 0 3 0;
#X connect 25 0 3 0;
#X restore 51 226 pd synths;
#X text 249 19 basic theremin scene;
#X obj 51 362 e_softclip;
#X obj 73 315 g_hsl drive 0 1;
#X obj 73 275 g_hsl dry 0 1;
#X obj 51 520 stereoout~;
#X msg 224 227 dry 0.4 \, amp 80 \, hall 90 \, freq 2000 \, damp 10
;
#X connect 0 0 7 0;
#X connect 1 0 2 0;
#X connect 2 0 4 0;
#X connect 3 0 16 0;
#X connect 4 0 3 0;
#X connect 6 0 1 0;
#X connect 7 0 1 0;
#X connect 9 0 21 0;
#X connect 9 1 21 1;
#X connect 10 0 11 0;
#X connect 11 0 12 0;
#X connect 12 0 13 0;
#X connect 13 0 14 0;
#X connect 14 0 9 1;
#X connect 15 0 22 0;
#X connect 16 0 18 0;
#X connect 18 0 9 0;
#X connect 19 0 18 1;
#X connect 20 0 19 0;
#X connect 22 0 10 0;
