#N canvas 862 126 779 714 12;
#X declare -path ./lib;
#X obj 54 15 r #brightness;
#X obj 54 52 unpack;
#X floatatom 54 126 6 0 0 0 norm - -;
#X floatatom 93 92 6 0 0 0 raw - -;
#X text 108 125 0 - 1;
#X text 148 91 EXIF -16 - 16?;
#X text 169 14 input: brightness values;
#X obj 400 662 dac~;
#X text 450 662 output: stereo;
#X obj 54 162 * 100;
#X obj 54 190 int;
#X obj 54 219 change;
#X obj 446 405 s_blsquare;
#X obj 377 366 mtof;
#X obj 400 608 hip~ 5;
#X floatatom 635 372 5 0 0 0 - - -;
#X floatatom 577 362 5 0 0 0 - - -;
#X obj 523 543 bob~;
#X floatatom 572 463 5 0 0 0 - - -;
#X floatatom 655 463 5 0 0 0 - - -;
#X obj 479 371 sig~ 0.75;
#X obj 406 460 osc~;
#X obj 591 405 s_bltriangle;
#X obj 505 327 - 0.25;
#X obj 345 396 - 12;
#X obj 345 428 mtof;
#X obj 400 576 *~;
#X msg 107 419 127;
#X obj 107 465 c_adsr 1 100 200 0.5 1000;
#X floatatom 345 301 5 0 0 0 - - -;
#X obj 345 267 c_nstep 8;
#X obj 405 203 loadbang;
#X obj 592 308 loadbang;
#X msg 577 338 0.2;
#X msg 632 345 1.44;
#X obj 652 509 sig~ 3;
#X obj 427 50 declare -path ./lib;
#X msg 41 299 0;
#X msg 94 300 1;
#X obj 94 330 change;
#X floatatom 123 198 5 0 0 0 - - -;
#X floatatom 94 358 5 0 0 0 - - -;
#X obj 226 156 notein;
#X obj 239 199 stripnote;
#X floatatom 239 237 5 0 0 0 - - -;
#X obj 345 334 t b f f;
#X msg 94 384 bang;
#X msg 405 235 48 60 52 64 53 65 55 67;
#X msg 173 308 2;
#X obj 463 584 r #volume;
#X obj 463 615 line~;
#X obj 400 636 *~;
#X obj 551 584 loadbang;
#X msg 551 609 1 100;
#X obj 406 496 *~ 0.6;
#X obj 455 441 *~ 0.8;
#X obj 570 500 sig~ 1200;
#X obj 595 437 *~ 0.6;
#X obj 37 37;
#X obj 419 305 + 12;
#X obj 43 272 moses 50;
#X obj 116 276 moses 75;
#X obj 165 214 pack f f;
#X obj 168 170 t f f;
#X obj 204 243 -;
#X floatatom 225 276 5 0 0 0 - - -;
#X obj 47 248 f;
#X obj 109 236 t f f;
#X obj 224 305 moses 0;
#X msg 267 334 bang;
#X connect 0 0 1 0;
#X connect 1 0 2 0;
#X connect 1 1 3 0;
#X connect 2 0 9 0;
#X connect 9 0 10 0;
#X connect 10 0 11 0;
#X connect 11 0 67 0;
#X connect 12 0 55 0;
#X connect 13 0 12 0;
#X connect 13 0 23 0;
#X connect 14 0 51 0;
#X connect 15 0 22 1;
#X connect 16 0 12 2;
#X connect 17 0 26 0;
#X connect 18 0 56 0;
#X connect 19 0 35 0;
#X connect 20 0 12 1;
#X connect 21 0 54 0;
#X connect 22 0 57 0;
#X connect 23 0 22 0;
#X connect 24 0 25 0;
#X connect 25 0 21 0;
#X connect 26 0 14 0;
#X connect 27 0 28 0;
#X connect 28 0 26 1;
#X connect 29 0 59 0;
#X connect 30 0 29 0;
#X connect 31 0 47 0;
#X connect 32 0 33 0;
#X connect 32 0 34 0;
#X connect 33 0 16 0;
#X connect 34 0 15 0;
#X connect 35 0 17 1;
#X connect 37 0 39 0;
#X connect 38 0 39 0;
#X connect 39 0 41 0;
#X connect 40 0 63 0;
#X connect 41 0 46 0;
#X connect 42 0 43 0;
#X connect 42 1 43 1;
#X connect 43 0 44 0;
#X connect 44 0 29 0;
#X connect 45 0 27 0;
#X connect 45 1 24 0;
#X connect 45 2 13 0;
#X connect 46 0 30 0;
#X connect 47 0 30 1;
#X connect 48 0 39 0;
#X connect 49 0 50 0;
#X connect 50 0 51 1;
#X connect 51 0 7 0;
#X connect 52 0 53 0;
#X connect 53 0 50 0;
#X connect 54 0 17 0;
#X connect 55 0 17 0;
#X connect 56 0 17 1;
#X connect 57 0 17 0;
#X connect 59 0 45 0;
#X connect 60 0 37 0;
#X connect 60 1 61 0;
#X connect 61 0 38 0;
#X connect 61 1 48 0;
#X connect 62 0 64 0;
#X connect 63 0 62 1;
#X connect 63 1 62 0;
#X connect 64 0 65 0;
#X connect 65 0 68 0;
#X connect 66 0 60 0;
#X connect 67 0 40 0;
#X connect 67 1 66 1;
#X connect 68 1 69 0;
#X connect 69 0 66 0;
