#N canvas 389 111 415 610 12;
#X declare -path ./lib;
#X obj 54 15 r #brightness;
#X obj 54 52 unpack;
#X text 169 14 input: brightness values;
#X obj 54 558 dac~;
#X text 104 558 output: stereo;
#X obj 54 86 * 100;
#X obj 54 114 int;
#X obj 54 143 change;
#X obj 54 499 hip~ 5;
#X floatatom 54 380 5 0 0 0 - - -;
#X obj 54 275 c_nstep 8;
#X obj 114 211 loadbang;
#X obj 233 51 declare -path ./lib;
#X obj 155 304 notein;
#X obj 155 337 stripnote;
#X msg 114 243 48 60 52 64 53 65 55 67;
#X obj 117 475 r #volume;
#X obj 117 506 line~;
#X obj 54 527 *~;
#X obj 205 475 loadbang;
#X msg 205 500 1 100;
#X obj 54 409 + 12;
#N canvas 0 25 586 532 synths 0;
#X obj 171 231 s_blsquare;
#X obj 171 130 mtof;
#X floatatom 453 180 5 0 0 0 - - -;
#X floatatom 402 180 5 0 0 0 - - -;
#X obj 233 349 bob~;
#X floatatom 380 263 5 0 0 0 - - -;
#X floatatom 479 263 5 0 0 0 - - -;
#X obj 204 197 sig~ 0.75;
#X obj 84 193 osc~;
#X obj 316 231 s_bltriangle;
#X obj 316 169 - 0.25;
#X obj 84 128 - 12;
#X obj 84 160 mtof;
#X obj 402 115 loadbang;
#X msg 402 153 0.2;
#X msg 453 153 1.44;
#X obj 479 295 sig~ 3;
#X obj 84 229 *~ 0.6;
#X obj 171 265 *~ 0.8;
#X obj 380 292 sig~ 1200;
#X obj 316 262 *~ 0.6;
#X obj 61 78 t f f f;
#X obj 61 357 makenote 127 500;
#X obj 251 399 c_adsr 1 100 200 0.5 250;
#X obj 61 35 inlet;
#X obj 233 476 outlet~;
#X obj 233 439 *~;
#X connect 0 0 18 0;
#X connect 1 0 0 0;
#X connect 1 0 10 0;
#X connect 2 0 9 1;
#X connect 3 0 0 2;
#X connect 4 0 26 0;
#X connect 5 0 19 0;
#X connect 6 0 16 0;
#X connect 7 0 0 1;
#X connect 8 0 17 0;
#X connect 9 0 20 0;
#X connect 10 0 9 0;
#X connect 11 0 12 0;
#X connect 12 0 8 0;
#X connect 13 0 14 0;
#X connect 13 0 15 0;
#X connect 14 0 3 0;
#X connect 15 0 2 0;
#X connect 16 0 4 1;
#X connect 17 0 4 0;
#X connect 18 0 4 0;
#X connect 19 0 4 1;
#X connect 20 0 4 0;
#X connect 21 0 22 0;
#X connect 21 1 11 0;
#X connect 21 2 1 0;
#X connect 22 1 23 0;
#X connect 23 0 26 1;
#X connect 24 0 21 0;
#X connect 26 0 25 0;
#X restore 54 440 pd synths;
#X text 113 116 quantize to 0 - 100;
#N canvas 0 25 822 619 trigger 0;
#X msg 196 442 0;
#X msg 270 443 1;
#X obj 270 473 change;
#X floatatom 270 501 5 0 0 0 - - -;
#X msg 270 527 bang;
#X msg 323 442 2;
#X obj 196 415 moses 50;
#X obj 270 415 moses 75;
#X obj 196 387 f;
#X obj 182 66 t f f;
#X text 378 417 ignore lower end \, trigger on values 0 - 50 \, 50
- 75 \, 75 - 100;
#X obj 182 34 inlet;
#X obj 270 557 outlet;
#X msg 47 253 0;
#X msg 121 254 1;
#X obj 121 284 change;
#X floatatom 121 312 5 0 0 0 - - -;
#X msg 121 338 bang;
#X msg 174 253 2;
#X obj 47 226 moses 50;
#X obj 121 226 moses 75;
#X obj 47 198 f;
#X obj 47 125 t f f;
#N canvas 0 25 414 297 positive 0;
#X obj 49 112 pack f f;
#X obj 52 68 t f f;
#X obj 49 145 -;
#X obj 49 175 moses 0;
#X msg 95 202 bang;
#X obj 52 36 inlet;
#X obj 95 233 outlet;
#X text 122 65 send bang on a positive diff;
#X connect 0 0 2 0;
#X connect 1 0 0 1;
#X connect 1 1 0 0;
#X connect 2 0 3 0;
#X connect 3 1 4 0;
#X connect 4 0 6 0;
#X connect 5 0 1 0;
#X restore 47 164 pd positive diff?;
#X text 229 228 ignore lower end \, trigger on values 0 - 50 \, 50
- 75 \, 75 - 100;
#X connect 0 0 2 0;
#X connect 1 0 2 0;
#X connect 2 0 3 0;
#X connect 3 0 4 0;
#X connect 4 0 12 0;
#X connect 5 0 2 0;
#X connect 6 0 0 0;
#X connect 6 1 7 0;
#X connect 7 0 1 0;
#X connect 7 1 5 0;
#X connect 8 0 6 0;
#X connect 9 0 22 0;
#X connect 9 1 8 1;
#X connect 11 0 9 0;
#X connect 13 0 15 0;
#X connect 14 0 15 0;
#X connect 15 0 16 0;
#X connect 16 0 17 0;
#X connect 17 0 8 0;
#X connect 18 0 15 0;
#X connect 19 0 13 0;
#X connect 19 1 20 0;
#X connect 20 0 14 0;
#X connect 20 1 18 0;
#X connect 21 0 19 0;
#X connect 22 0 23 0;
#X connect 22 1 21 1;
#X connect 23 0 21 0;
#X restore 54 173 pd trigger;
#X text 304 241 sequence;
#X text 231 315 MIDI;
#X connect 0 0 1 0;
#X connect 1 0 5 0;
#X connect 5 0 6 0;
#X connect 6 0 7 0;
#X connect 7 0 24 0;
#X connect 8 0 18 0;
#X connect 9 0 21 0;
#X connect 10 0 9 0;
#X connect 11 0 15 0;
#X connect 13 0 14 0;
#X connect 13 1 14 1;
#X connect 14 0 9 0;
#X connect 15 0 10 1;
#X connect 16 0 17 0;
#X connect 17 0 18 1;
#X connect 18 0 3 0;
#X connect 18 0 3 1;
#X connect 19 0 20 0;
#X connect 20 0 17 0;
#X connect 21 0 22 0;
#X connect 22 0 8 0;
#X connect 24 0 10 0;
