#N canvas 407 131 458 602 12;
#X obj 197 400 osc~;
#X obj 258 400 phasor~;
#X obj 258 431 *~ 0.5;
#X obj 197 431 *~ 0.5;
#X obj 197 474 hip~ 5;
#X obj 197 556 dac~;
#X obj 51 31 r #brightness;
#X obj 197 248 expr $f1 * 64 + 32;
#X text 341 249 MIDI 32 - 96;
#X obj 258 334 - 12;
#X obj 197 366 mtof;
#X obj 258 366 mtof;
#X text 156 35 normalized 0 - 1;
#X obj 51 83 * 100;
#X obj 51 116 int;
#X obj 51 182 / 100;
#X obj 51 148 change;
#X obj 111 333 delay 1000;
#X msg 111 304 stop;
#X msg 51 363 1 100;
#X obj 51 215 t b f b;
#X msg 111 362 0 1000;
#X obj 51 406 line~;
#X obj 197 513 *~;
#X text 110 147 quantize slightly to smooth;
#X text 97 405 envelope;
#X obj 78 60 hsl 128 15 0 1 0 0 empty empty empty -2 -8 0 10 -262144
-1 -1 7400 1;
#X obj 197 303 line;
#X msg 197 276 \$1 100;
#X connect 0 0 3 0;
#X connect 1 0 2 0;
#X connect 2 0 4 0;
#X connect 3 0 4 0;
#X connect 4 0 23 0;
#X connect 6 0 13 0;
#X connect 7 0 28 0;
#X connect 9 0 11 0;
#X connect 10 0 0 0;
#X connect 11 0 1 0;
#X connect 13 0 14 0;
#X connect 14 0 16 0;
#X connect 15 0 20 0;
#X connect 16 0 15 0;
#X connect 17 0 21 0;
#X connect 18 0 17 0;
#X connect 19 0 22 0;
#X connect 20 0 17 0;
#X connect 20 0 19 0;
#X connect 20 1 7 0;
#X connect 20 2 18 0;
#X connect 21 0 22 0;
#X connect 22 0 23 1;
#X connect 23 0 5 0;
#X connect 23 0 5 1;
#X connect 26 0 13 0;
#X connect 27 0 10 0;
#X connect 27 0 9 0;
#X connect 28 0 27 0;
