#N canvas 365 63 472 565 12;
#X obj 32 451 qlist;
#X obj 57 49 hsl 100 15 0 1 0 0 empty empty empty -2 -8 0 10 -262144
-1 -1 6100 1;
#X obj 55 294 timer;
#X obj 32 321 list prepend;
#X msg 162 197 bang;
#X obj 32 355 list prepend add;
#X obj 32 254 t a b b;
#X obj 32 385 list trim;
#X msg 32 79 #brightness \$1;
#X obj 32 226 spigot;
#X obj 32 16 r #brightness;
#X obj 139 114 sel 1;
#X msg 85 197 1;
#X msg 71 164 0;
#X msg 202 197 clear;
#X obj 139 164 t b b b;
#X msg 368 47 play \$1;
#X obj 368 16 tgl 15 0 empty empty empty 17 7 0 10 -262144 -1 -1 0
1;
#X obj 189 79 route record play;
#X obj 273 16 tgl 15 0 empty empty empty 17 7 0 10 -262144 -1 -1 0
1;
#X msg 273 47 record \$1;
#X obj 247 118 sel 1;
#X msg 279 147 rewind;
#X obj 341 149 t a;
#X msg 244 408 bang;
#X msg 244 470 write \$1;
#X obj 339 439 openpanel;
#X msg 339 408 bang;
#X msg 339 470 read \$1;
#X obj 64 514 s #app;
#X msg 64 486 qlister done;
#X obj 247 241 s \$0-qlist;
#X obj 59 421 r \$0-qlist;
#X obj 244 511 s \$0-qlist;
#X obj 244 439 savepanel;
#X obj 189 16 r #qlister;
#X obj 189 47 list trim;
#X connect 0 1 30 0;
#X connect 1 0 8 0;
#X connect 2 0 3 1;
#X connect 3 0 5 0;
#X connect 4 0 2 0;
#X connect 5 0 7 0;
#X connect 6 0 3 0;
#X connect 6 1 2 0;
#X connect 6 2 2 1;
#X connect 7 0 0 0;
#X connect 8 0 9 0;
#X connect 9 0 6 0;
#X connect 10 0 8 0;
#X connect 11 0 15 0;
#X connect 11 1 13 0;
#X connect 12 0 9 1;
#X connect 13 0 9 1;
#X connect 14 0 31 0;
#X connect 15 0 12 0;
#X connect 15 1 4 0;
#X connect 15 2 14 0;
#X connect 16 0 18 0;
#X connect 17 0 16 0;
#X connect 18 0 11 0;
#X connect 18 1 21 0;
#X connect 18 2 23 0;
#X connect 19 0 20 0;
#X connect 20 0 18 0;
#X connect 21 0 31 0;
#X connect 21 1 22 0;
#X connect 22 0 31 0;
#X connect 23 0 31 0;
#X connect 24 0 34 0;
#X connect 25 0 33 0;
#X connect 26 0 28 0;
#X connect 27 0 26 0;
#X connect 28 0 33 0;
#X connect 30 0 29 0;
#X connect 32 0 0 0;
#X connect 34 0 25 0;
#X connect 35 0 36 0;
#X connect 36 0 18 0;
