#N canvas 220 187 854 233 12;
#X obj 24 86 qlist;
#X obj 381 116 tgl 15 0 empty empty empty 17 7 0 10 -262144 -1 -1 0
1;
#X msg 381 150 record \$1;
#X msg 665 86 bang;
#X msg 665 150 write \$1;
#X obj 760 116 openpanel;
#X msg 760 86 bang;
#X msg 760 150 read \$1;
#X obj 56 150 s #app;
#X msg 56 120 qlister done;
#X obj 51 52 r \$0-qlist;
#X obj 665 181 s \$0-qlist;
#X obj 665 116 savepanel;
#X obj 212 19 r #qlister;
#X obj 212 52 list trim;
#N canvas 0 25 315 417 #brightness 0;
#X obj 51 243 timer;
#X obj 28 270 list prepend;
#X obj 28 304 list prepend add;
#X obj 28 203 t a b b;
#X obj 28 334 list trim;
#X obj 28 368 outlet;
#X obj 28 102 r #brightness;
#X obj 28 139 spigot;
#X obj 152 101 route float reset;
#X msg 210 169 bang;
#X obj 152 55 r \$0-values;
#X text 21 13 format "add ms #brightness f f" message;
#X msg 28 172 #brightness \$1 \$2;
#X connect 0 0 1 1;
#X connect 1 0 2 0;
#X connect 2 0 4 0;
#X connect 3 0 1 0;
#X connect 3 1 0 0;
#X connect 3 2 0 1;
#X connect 4 0 5 0;
#X connect 6 0 7 0;
#X connect 7 0 12 0;
#X connect 8 0 7 1;
#X connect 8 1 9 0;
#X connect 9 0 0 0;
#X connect 10 0 8 0;
#X connect 12 0 3 0;
#X restore 24 19 pd #brightness;
#X obj 469 52 hsl 128 15 0 1 0 0 empty empty empty -2 -8 0 10 -262144
-1 -1 6500 1;
#X obj 519 116 expr $f1 * 16 - 8;
#X text 462 18 testing area;
#X obj 466 179 s #brightness;
#X obj 466 150 pack f f;
#X obj 466 86 t f f;
#X msg 304 150 play \$1;
#X obj 304 116 tgl 15 0 empty empty empty 17 7 0 10 -262144 -1 -1 0
1;
#X obj 27 179 s \$0-done;
#X obj 304 52 r \$0-done;
#X msg 304 86 set 0;
#N canvas 0 25 410 330 control 0;
#X obj 108 97 sel 1;
#X msg 108 241 1;
#X msg 68 131 0;
#X msg 154 159 clear;
#X obj 108 131 t b b b;
#X obj 108 62 route record play;
#X obj 216 101 sel 1;
#X msg 248 130 rewind;
#X obj 310 130 t a;
#X obj 248 269 s \$0-qlist;
#X msg 131 201 reset;
#X obj 68 268 s \$0-values;
#X obj 108 31 inlet;
#X connect 0 0 4 0;
#X connect 0 1 2 0;
#X connect 1 0 11 0;
#X connect 2 0 11 0;
#X connect 3 0 9 0;
#X connect 4 0 1 0;
#X connect 4 1 10 0;
#X connect 4 2 3 0;
#X connect 5 0 0 0;
#X connect 5 1 6 0;
#X connect 5 2 8 0;
#X connect 6 0 9 0;
#X connect 6 1 7 0;
#X connect 7 0 9 0;
#X connect 8 0 9 0;
#X connect 10 0 11 0;
#X connect 12 0 5 0;
#X restore 162 86 pd control;
#X obj 304 181 s #qlister;
#X obj 162 19 inlet;
#X obj 7 203 outlet;
#X connect 0 1 9 0;
#X connect 0 1 24 0;
#X connect 0 1 30 0;
#X connect 1 0 2 0;
#X connect 2 0 28 0;
#X connect 3 0 12 0;
#X connect 4 0 11 0;
#X connect 5 0 7 0;
#X connect 6 0 5 0;
#X connect 7 0 11 0;
#X connect 9 0 8 0;
#X connect 10 0 0 0;
#X connect 12 0 4 0;
#X connect 13 0 14 0;
#X connect 14 0 27 0;
#X connect 15 0 0 0;
#X connect 16 0 21 0;
#X connect 17 0 20 1;
#X connect 20 0 19 0;
#X connect 21 0 20 0;
#X connect 21 1 17 0;
#X connect 22 0 28 0;
#X connect 23 0 22 0;
#X connect 25 0 26 0;
#X connect 26 0 23 0;
#X connect 29 0 27 0;
