#N canvas 295 25 640 703 12;
#X declare -path ./lib;
#X obj 325 52 r #brightness;
#X obj 325 89 unpack;
#X floatatom 325 178 6 0 0 0 norm - -;
#X floatatom 364 129 6 0 0 0 raw - -;
#X text 383 178 0 - 1;
#X text 419 128 EXIF -16 - 16?;
#X text 440 51 input: brightness values;
#N canvas 154 82 1367 889 piano-phase-1 0;
#X obj 83 248 mtof;
#X obj 50 159 list split;
#X obj 83 188 list split 1;
#X obj 115 41 + 1;
#X obj 85 41 f 0;
#X obj 155 41 mod 12;
#X obj 85 71 t b a;
#X obj 83 218 + 64;
#X obj 83 278 outlet;
#X obj 85 11 inlet;
#X obj 354 15 r #brightness;
#X obj 354 116 int;
#X floatatom 354 147 5 0 0 0 - - -;
#X obj 515 246 bng 15 250 50 0 empty empty empty 17 7 0 10 -262144
-1 -1;
#X obj 545 272 + 1;
#X obj 515 272 f 0;
#X floatatom 515 301 5 0 0 0 - - -;
#X obj 354 87 * 10;
#X msg 131 114 4 5 6 7 8 9 8 7 6 5 4 3;
#X obj 354 178 change;
#X text 907 155 -Presionar 2 o 3 veces el boton "Calc" al;
#X text 912 169 momento de calcular la matriz.;
#X text 906 20 MATRIZ DODECAFÓNICA.;
#X obj 515 330 sel 14;
#X msg 515 363 0;
#X text 908 59 Serie Propia (0-127);
#X floatatom 812 364 5 0 0 0 - - -;
#X floatatom 850 364 5 0 0 0 - - -;
#X floatatom 888 364 5 0 0 0 - - -;
#X floatatom 926 364 5 0 0 0 - - -;
#X obj 812 399 expr $f2-$f1;
#X floatatom 812 691 5 0 0 0 - - -;
#X obj 850 420 expr $f2-$f1;
#X floatatom 850 691 5 0 0 0 - - -;
#X obj 888 442 expr $f2-$f1;
#X floatatom 888 692 5 0 0 0 - - -;
#X obj 926 465 expr $f2-$f1;
#X obj 964 486 expr $f2-$f1;
#X obj 1002 508 expr $f2-$f1;
#X obj 1040 531 expr $f2-$f1;
#X obj 1078 552 expr $f2-$f1;
#X obj 1116 574 expr $f2-$f1;
#X obj 1154 597 expr $f2-$f1;
#X obj 1192 618 expr $f2-$f1;
#X floatatom 964 364 5 0 0 0 - - -;
#X floatatom 1001 363 5 0 0 0 - - -;
#X floatatom 1040 364 5 0 0 0 - - -;
#X floatatom 1078 364 5 0 0 0 - - -;
#X floatatom 1116 364 5 0 0 0 - - -;
#X floatatom 1154 364 5 0 0 0 - - -;
#X floatatom 1192 364 5 0 0 0 - - -;
#X floatatom 1230 364 5 0 0 0 - - -;
#X floatatom 926 693 5 0 0 0 - - -;
#X floatatom 964 693 5 0 0 0 - - -;
#X floatatom 1002 694 5 0 0 0 - - -;
#X floatatom 1040 695 5 0 0 0 - - -;
#X floatatom 1078 696 5 0 0 0 - - -;
#X floatatom 1116 697 5 0 0 0 - - -;
#X floatatom 1154 697 5 0 0 0 - - -;
#X floatatom 1192 698 5 0 0 0 - - -;
#X obj 812 732 * -1;
#X obj 850 732 * -1;
#X obj 888 732 * -1;
#X obj 926 732 * -1;
#X obj 964 732 * -1;
#X obj 1002 732 * -1;
#X obj 1040 732 * -1;
#X obj 1078 732 * -1;
#X obj 1116 732 * -1;
#X obj 1154 732 * -1;
#X obj 1192 732 * -1;
#X obj 812 766 s y1;
#X obj 888 766 s y3;
#X obj 850 766 s y2;
#X floatatom 825 805 5 0 0 0 - - -;
#X floatatom 863 805 5 0 0 0 - - -;
#X floatatom 901 806 5 0 0 0 - - -;
#X floatatom 939 807 5 0 0 0 - - -;
#X floatatom 977 807 5 0 0 0 - - -;
#X floatatom 1015 808 5 0 0 0 - - -;
#X floatatom 1053 809 5 0 0 0 - - -;
#X floatatom 1091 810 5 0 0 0 - - -;
#X floatatom 1129 811 5 0 0 0 - - -;
#X floatatom 1167 811 5 0 0 0 - - -;
#X floatatom 1205 812 5 0 0 0 - - -;
#X obj 926 766 s y4;
#X obj 964 766 s y5;
#X obj 1002 766 s y6;
#X obj 1040 766 s y7;
#X obj 1078 766 s y8;
#X obj 1116 766 s y9;
#X obj 1154 766 s y10;
#X obj 1192 766 s y11;
#N canvas 0 25 643 588 inverso-matrix12 0;
#X obj 126 52 r y1;
#X obj 164 52 r y2;
#X obj 202 52 r y3;
#X obj 126 85 expr $f2+$f1;
#X floatatom 126 397 5 0 0 0 - - -;
#X floatatom 164 397 5 0 0 0 - - -;
#X floatatom 202 397 5 0 0 0 - - -;
#X obj 164 107 expr $f2+$f1;
#X obj 202 131 expr $f2+$f1;
#X text 152 22 INVERSO;
#X obj 245 155 expr $f2+$f1;
#X obj 283 177 expr $f2+$f1;
#X obj 321 201 expr $f2+$f1;
#X obj 358 225 expr $f2+$f1;
#X obj 396 249 expr $f2+$f1;
#X obj 439 273 expr $f2+$f1;
#X obj 477 295 expr $f2+$f1;
#X obj 515 319 expr $f2+$f1;
#X obj 239 53 r y4;
#X obj 277 53 r y5;
#X obj 315 53 r y6;
#X obj 350 54 r y7;
#X obj 388 54 r y8;
#X obj 426 54 r y9;
#X obj 463 55 r y10;
#X obj 501 55 r y11;
#X floatatom 245 397 5 0 0 0 - - -;
#X floatatom 283 397 5 0 0 0 - - -;
#X floatatom 321 397 5 0 0 0 - - -;
#X floatatom 358 397 5 0 0 0 - - -;
#X floatatom 396 397 5 0 0 0 - - -;
#X floatatom 439 397 5 0 0 0 - - -;
#X floatatom 477 397 5 0 0 0 - - -;
#X floatatom 515 397 5 0 0 0 - - -;
#X obj 29 27 inlet;
#X obj 126 446 outlet;
#X obj 164 470 outlet;
#X obj 202 444 outlet;
#X obj 245 468 outlet;
#X obj 283 443 outlet;
#X obj 321 467 outlet;
#X obj 358 441 outlet;
#X obj 396 465 outlet;
#X obj 439 440 outlet;
#X obj 477 464 outlet;
#X obj 515 438 outlet;
#X connect 0 0 3 1;
#X connect 1 0 7 1;
#X connect 2 0 8 1;
#X connect 3 0 4 0;
#X connect 4 0 7 0;
#X connect 4 0 35 0;
#X connect 5 0 8 0;
#X connect 5 0 36 0;
#X connect 6 0 10 0;
#X connect 6 0 37 0;
#X connect 7 0 5 0;
#X connect 8 0 6 0;
#X connect 10 0 26 0;
#X connect 11 0 27 0;
#X connect 12 0 28 0;
#X connect 13 0 29 0;
#X connect 14 0 30 0;
#X connect 15 0 31 0;
#X connect 16 0 32 0;
#X connect 17 0 33 0;
#X connect 18 0 10 1;
#X connect 19 0 11 1;
#X connect 20 0 12 1;
#X connect 21 0 13 1;
#X connect 22 0 14 1;
#X connect 23 0 15 1;
#X connect 24 0 16 1;
#X connect 25 0 17 1;
#X connect 26 0 11 0;
#X connect 26 0 38 0;
#X connect 27 0 12 0;
#X connect 27 0 39 0;
#X connect 28 0 13 0;
#X connect 28 0 40 0;
#X connect 29 0 14 0;
#X connect 29 0 41 0;
#X connect 30 0 15 0;
#X connect 30 0 42 0;
#X connect 31 0 16 0;
#X connect 31 0 43 0;
#X connect 32 0 17 0;
#X connect 32 0 44 0;
#X connect 33 0 45 0;
#X connect 34 0 3 0;
#X restore 290 600 pd inverso-matrix12;
#N canvas 353 72 651 550 z2-original-matrix12 0;
#X obj 116 104 expr $f2+$f1;
#X floatatom 116 388 5 0 0 0 - - -;
#X floatatom 154 388 5 0 0 0 - - -;
#X floatatom 192 388 5 0 0 0 - - -;
#X obj 154 126 expr $f2+$f1;
#X obj 192 150 expr $f2+$f1;
#X obj 235 174 expr $f2+$f1;
#X obj 273 196 expr $f2+$f1;
#X obj 311 220 expr $f2+$f1;
#X obj 348 244 expr $f2+$f1;
#X obj 386 268 expr $f2+$f1;
#X obj 429 292 expr $f2+$f1;
#X obj 467 314 expr $f2+$f1;
#X obj 505 338 expr $f2+$f1;
#X floatatom 235 388 5 0 0 0 - - -;
#X floatatom 273 388 5 0 0 0 - - -;
#X floatatom 311 388 5 0 0 0 - - -;
#X floatatom 348 388 5 0 0 0 - - -;
#X floatatom 386 388 5 0 0 0 - - -;
#X floatatom 429 388 5 0 0 0 - - -;
#X floatatom 467 388 5 0 0 0 - - -;
#X floatatom 505 388 5 0 0 0 - - -;
#X text 114 10 z2 ORIGINAL;
#X obj 116 39 inlet;
#X obj 119 434 outlet;
#X obj 157 464 outlet;
#X obj 226 435 outlet;
#X obj 264 465 outlet;
#X obj 307 436 outlet;
#X obj 345 466 outlet;
#X obj 383 437 outlet;
#X obj 420 467 outlet;
#X obj 458 437 outlet;
#X obj 501 467 outlet;
#X obj 539 438 outlet;
#X text 44 38 z2=>;
#X obj 185 63 r y1o;
#X obj 223 63 r y2o;
#X obj 261 63 r y3o;
#X obj 304 63 r y4o;
#X obj 342 63 r y5o;
#X obj 380 63 r y6o;
#X obj 418 63 r y7o;
#X obj 456 63 r y8o;
#X obj 494 63 r y9o;
#X obj 532 63 r y10o;
#X obj 577 63 r y11o;
#X connect 0 0 1 0;
#X connect 1 0 4 0;
#X connect 1 0 24 0;
#X connect 2 0 5 0;
#X connect 2 0 25 0;
#X connect 3 0 6 0;
#X connect 3 0 26 0;
#X connect 4 0 2 0;
#X connect 5 0 3 0;
#X connect 6 0 14 0;
#X connect 7 0 15 0;
#X connect 8 0 16 0;
#X connect 9 0 17 0;
#X connect 10 0 18 0;
#X connect 11 0 19 0;
#X connect 12 0 20 0;
#X connect 13 0 21 0;
#X connect 14 0 7 0;
#X connect 14 0 27 0;
#X connect 15 0 8 0;
#X connect 15 0 28 0;
#X connect 16 0 9 0;
#X connect 16 0 29 0;
#X connect 17 0 10 0;
#X connect 17 0 30 0;
#X connect 18 0 11 0;
#X connect 18 0 31 0;
#X connect 19 0 12 0;
#X connect 19 0 32 0;
#X connect 20 0 13 0;
#X connect 20 0 33 0;
#X connect 21 0 34 0;
#X connect 23 0 0 0;
#X connect 36 0 0 1;
#X connect 37 0 4 1;
#X connect 38 0 5 1;
#X connect 39 0 6 1;
#X connect 40 0 7 1;
#X connect 41 0 8 1;
#X connect 42 0 9 1;
#X connect 43 0 10 1;
#X connect 44 0 11 1;
#X connect 45 0 12 1;
#X connect 46 0 13 1;
#X restore 290 638 pd z2-original-matrix12;
#X obj 817 848 s y1o;
#X obj 855 848 s y2o;
#X obj 893 848 s y3o;
#X obj 931 848 s y4o;
#X obj 969 848 s y5o;
#X obj 1007 848 s y6o;
#X obj 1045 848 s y7o;
#X obj 1083 848 s y8o;
#X obj 1121 848 s y9o;
#X obj 1159 848 s y10o;
#X obj 1204 848 s y11o;
#X floatatom 63 690 5 0 0 0 - - -;
#X floatatom 119 690 5 0 0 0 - - -;
#X floatatom 184 690 5 0 0 0 - - -;
#X floatatom 240 690 5 0 0 0 - - -;
#X floatatom 303 690 5 0 0 0 - - -;
#X floatatom 353 690 5 0 0 0 - - -;
#X floatatom 418 690 5 0 0 0 - - -;
#X floatatom 474 690 5 0 0 0 - - -;
#X floatatom 527 690 5 0 0 0 - - -;
#X floatatom 594 690 5 0 0 0 - - -;
#X floatatom 642 690 5 0 0 0 - - -;
#X floatatom 698 690 5 0 0 0 - - -;
#X obj 188 741 pack f f f f f f f f f f f f;
#X msg 188 774 set \$1 \$2 \$3 \$4 \$5 \$6 \$7 \$8 \$9 \$10 \$11 \$12
;
#X obj 354 247 lib/bucket 12;
#X obj 354 330 list prepend set;
#X obj 890 308 unpack f f f f f f f f f f f f;
#X obj 354 287 t a a;
#X obj 354 51 unpack f f;
#X obj 354 395 spigot 1;
#X obj 890 278 spigot 1;
#X obj 354 210 t f b;
#X obj 407 363 r \$0-close;
#X obj 943 248 r \$0-close;
#X obj 515 395 s \$0-close;
#X obj 188 810 s \$0-secondPiano;
#X connect 0 0 8 0;
#X connect 1 1 2 0;
#X connect 2 0 7 0;
#X connect 3 0 5 0;
#X connect 4 0 3 0;
#X connect 4 0 6 0;
#X connect 5 0 4 1;
#X connect 6 0 18 0;
#X connect 6 1 1 1;
#X connect 7 0 0 0;
#X connect 9 0 4 0;
#X connect 10 0 124 0;
#X connect 11 0 12 0;
#X connect 12 0 19 0;
#X connect 13 0 15 0;
#X connect 14 0 15 1;
#X connect 15 0 14 0;
#X connect 15 0 16 0;
#X connect 16 0 23 0;
#X connect 17 0 11 0;
#X connect 18 0 1 0;
#X connect 19 0 127 0;
#X connect 23 0 24 0;
#X connect 24 0 130 0;
#X connect 26 0 30 0;
#X connect 26 0 93 0;
#X connect 27 0 30 1;
#X connect 27 0 32 0;
#X connect 28 0 32 1;
#X connect 28 0 34 0;
#X connect 29 0 34 1;
#X connect 29 0 36 0;
#X connect 30 0 31 0;
#X connect 31 0 60 0;
#X connect 31 0 95 0;
#X connect 32 0 33 0;
#X connect 33 0 61 0;
#X connect 33 0 96 0;
#X connect 34 0 35 0;
#X connect 35 0 62 0;
#X connect 35 0 97 0;
#X connect 36 0 52 0;
#X connect 37 0 53 0;
#X connect 38 0 54 0;
#X connect 39 0 55 0;
#X connect 40 0 56 0;
#X connect 41 0 57 0;
#X connect 42 0 58 0;
#X connect 43 0 59 0;
#X connect 44 0 36 1;
#X connect 44 0 37 0;
#X connect 45 0 37 1;
#X connect 45 0 38 0;
#X connect 46 0 38 1;
#X connect 46 0 39 0;
#X connect 47 0 39 1;
#X connect 47 0 40 0;
#X connect 48 0 40 1;
#X connect 48 0 41 0;
#X connect 49 0 41 1;
#X connect 49 0 42 0;
#X connect 50 0 42 1;
#X connect 50 0 43 0;
#X connect 51 0 43 1;
#X connect 52 0 63 0;
#X connect 52 0 98 0;
#X connect 53 0 64 0;
#X connect 53 0 99 0;
#X connect 54 0 65 0;
#X connect 54 0 100 0;
#X connect 55 0 66 0;
#X connect 55 0 101 0;
#X connect 56 0 67 0;
#X connect 56 0 102 0;
#X connect 57 0 68 0;
#X connect 57 0 103 0;
#X connect 58 0 69 0;
#X connect 58 0 104 0;
#X connect 59 0 70 0;
#X connect 59 0 105 0;
#X connect 60 0 71 0;
#X connect 60 0 74 0;
#X connect 61 0 73 0;
#X connect 61 0 75 0;
#X connect 62 0 72 0;
#X connect 62 0 76 0;
#X connect 63 0 77 0;
#X connect 63 0 85 0;
#X connect 64 0 78 0;
#X connect 64 0 86 0;
#X connect 65 0 79 0;
#X connect 65 0 87 0;
#X connect 66 0 80 0;
#X connect 66 0 88 0;
#X connect 67 0 81 0;
#X connect 67 0 89 0;
#X connect 68 0 82 0;
#X connect 68 0 90 0;
#X connect 69 0 83 0;
#X connect 69 0 91 0;
#X connect 70 0 84 0;
#X connect 70 0 92 0;
#X connect 93 0 94 0;
#X connect 93 0 106 0;
#X connect 94 0 107 0;
#X connect 94 1 108 0;
#X connect 94 2 109 0;
#X connect 94 3 110 0;
#X connect 94 4 111 0;
#X connect 94 5 112 0;
#X connect 94 6 113 0;
#X connect 94 7 114 0;
#X connect 94 8 115 0;
#X connect 94 9 116 0;
#X connect 94 10 117 0;
#X connect 106 0 118 0;
#X connect 107 0 118 1;
#X connect 108 0 118 2;
#X connect 109 0 118 3;
#X connect 110 0 118 4;
#X connect 111 0 118 5;
#X connect 112 0 118 6;
#X connect 113 0 118 7;
#X connect 114 0 118 8;
#X connect 115 0 118 9;
#X connect 116 0 118 10;
#X connect 117 0 118 11;
#X connect 118 0 119 0;
#X connect 119 0 131 0;
#X connect 120 0 123 0;
#X connect 121 0 125 0;
#X connect 122 0 26 0;
#X connect 122 1 27 0;
#X connect 122 2 28 0;
#X connect 122 3 29 0;
#X connect 122 4 44 0;
#X connect 122 5 45 0;
#X connect 122 6 46 0;
#X connect 122 7 47 0;
#X connect 122 8 48 0;
#X connect 122 9 49 0;
#X connect 122 10 50 0;
#X connect 122 11 51 0;
#X connect 123 0 121 0;
#X connect 123 1 126 0;
#X connect 124 0 17 0;
#X connect 125 0 18 0;
#X connect 126 0 122 0;
#X connect 127 0 120 0;
#X connect 127 1 13 0;
#X connect 128 0 125 1;
#X connect 129 0 126 1;
#X restore 65 476 pd piano-phase-1;
#X obj 65 446 metro 140;
#N canvas 365 25 289 395 piano-phase-2 0;
#X obj 83 304 mtof;
#X obj 50 214 list split;
#X obj 83 244 list split 1;
#X obj 72 72 + 1;
#X obj 42 72 f 0;
#X obj 112 72 mod 12;
#X obj 42 102 t b a;
#X obj 83 274 + 64;
#X obj 83 334 outlet;
#X obj 42 42 inlet;
#X msg 70 177 3 2 3 2 1 2 1 2 1 2 1 2;
#X obj 112 157 bng 15 250 50 0 empty empty empty 17 7 0 10 -262144
-1 -1;
#X obj 68 131 r \$0-secondPiano;
#X connect 0 0 8 0;
#X connect 1 1 2 0;
#X connect 2 0 7 0;
#X connect 3 0 5 0;
#X connect 4 0 3 0;
#X connect 4 0 6 0;
#X connect 5 0 4 1;
#X connect 6 0 10 0;
#X connect 6 1 1 1;
#X connect 7 0 0 0;
#X connect 9 0 4 0;
#X connect 10 0 1 0;
#X connect 11 0 10 0;
#X connect 12 0 10 0;
#X connect 12 0 11 0;
#X restore 205 476 pd piano-phase-2;
#X obj 65 343 loadbang;
#N canvas 136 476 254 341 4m-sinusblip 0;
#X obj 34 59 t b f;
#X obj 34 249 *~;
#X obj 34 29 inlet;
#X obj 34 279 outlet~;
#X obj 154 179 * 0.5;
#X obj 154 241 *~ 0.5;
#X obj 34 178 vline~;
#X obj 34 209 dbtorms~;
#X obj 34 119 pack f 500;
#X msg 34 149 \$1 1 0 \, 30 \$2 1;
#X obj 34 89 f 98;
#X obj 112 213 osc~;
#X obj 154 210 phasor~;
#X connect 0 0 10 0;
#X connect 0 1 4 0;
#X connect 0 1 11 0;
#X connect 1 0 3 0;
#X connect 2 0 0 0;
#X connect 4 0 12 0;
#X connect 5 0 1 1;
#X connect 6 0 7 0;
#X connect 7 0 1 0;
#X connect 8 0 9 0;
#X connect 9 0 6 0;
#X connect 10 0 8 0;
#X connect 11 0 1 1;
#X connect 12 0 5 0;
#X restore 65 506 pd 4m-sinusblip;
#X obj 205 446 metro 140;
#N canvas 4 25 254 341 4m-sinusblip 0;
#X obj 34 59 t b f;
#X obj 109 208 osc~;
#X obj 34 249 *~;
#X obj 34 29 inlet;
#X obj 34 279 outlet~;
#X obj 34 178 vline~;
#X obj 34 209 dbtorms~;
#X obj 34 119 pack f 500;
#X msg 34 149 \$1 1 0 \, 30 \$2 1;
#X obj 34 89 f 98;
#X obj 154 179 * 0.5;
#X obj 154 241 *~ 0.4;
#X obj 154 210 phasor~;
#X connect 0 0 9 0;
#X connect 0 1 1 0;
#X connect 0 1 10 0;
#X connect 1 0 2 1;
#X connect 2 0 4 0;
#X connect 3 0 0 0;
#X connect 5 0 6 0;
#X connect 6 0 2 0;
#X connect 7 0 8 0;
#X connect 8 0 5 0;
#X connect 9 0 7 0;
#X connect 10 0 12 0;
#X connect 11 0 2 1;
#X connect 12 0 11 0;
#X restore 205 504 pd 4m-sinusblip;
#X obj 65 373 del 1000;
#N canvas 4 23 215 176 lop 0;
#X obj 20 23 inlet;
#X obj 20 113 outlet;
#X obj 20 83 +;
#X obj 60 83 * 0.9;
#X obj 20 53 * 0.1;
#X connect 0 0 4 0;
#X connect 2 0 3 0;
#X connect 2 0 1 0;
#X connect 3 0 2 1;
#X connect 4 0 2 0;
#X restore 245 315 pd lop;
#N canvas 0 22 215 176 lop 0;
#X obj 20 23 inlet;
#X obj 20 113 outlet;
#X obj 20 83 +;
#X obj 60 83 * 0.9;
#X obj 20 53 * 0.1;
#X connect 0 0 4 0;
#X connect 2 0 3 0;
#X connect 2 0 1 0;
#X connect 3 0 2 1;
#X connect 4 0 2 0;
#X restore 325 315 pd lop;
#N canvas 0 25 215 176 lop 0;
#X obj 20 23 inlet;
#X obj 20 113 outlet;
#X obj 20 83 +;
#X obj 60 83 * 0.9;
#X obj 20 53 * 0.1;
#X connect 0 0 4 0;
#X connect 2 0 3 0;
#X connect 2 0 1 0;
#X connect 3 0 2 1;
#X connect 4 0 2 0;
#X restore 450 315 pd lop;
#X obj 450 373 moses 1.5;
#X obj 372 538 line;
#X floatatom 337 401 5 0 0 0 - - -;
#X obj 325 345 * -20;
#X obj 245 345 * -20;
#X msg 372 504 88 \, 65 10000;
#N canvas 0 25 215 176 lop 0;
#X obj 20 23 inlet;
#X obj 20 113 outlet;
#X obj 20 83 +;
#X obj 60 83 * 0.9;
#X obj 20 53 * 0.1;
#X connect 0 0 4 0;
#X connect 2 0 3 0;
#X connect 2 0 1 0;
#X connect 3 0 2 1;
#X connect 4 0 2 0;
#X restore 450 345 pd lop;
#X obj 397 249 moses 85;
#X obj 397 220 * 100;
#X obj 245 249 / 4;
#X obj 245 373 + 200;
#X obj 325 373 + 200;
#X obj 325 250 / -4;
#X floatatom 254 401 5 0 0 0 - - -;
#X obj 278 576 lib/rev3~ 90 65 6000 56;
#X obj 65 576 *~ 0.2;
#X obj 65 539 *~ 2.5;
#X obj 205 537 *~ 2.5;
#X obj 63 53 declare -path ./lib;
#X obj 174 650 stereoout~;
#X obj 205 577 *~ 0.1;
#X connect 0 0 1 0;
#X connect 1 0 2 0;
#X connect 1 1 3 0;
#X connect 2 0 26 0;
#X connect 2 0 27 0;
#X connect 2 0 30 0;
#X connect 7 0 11 0;
#X connect 8 0 7 0;
#X connect 9 0 13 0;
#X connect 10 0 14 0;
#X connect 11 0 34 0;
#X connect 12 0 9 0;
#X connect 13 0 35 0;
#X connect 14 0 8 0;
#X connect 14 0 12 0;
#X connect 15 0 22 0;
#X connect 16 0 21 0;
#X connect 17 0 24 0;
#X connect 18 1 23 0;
#X connect 19 0 32 3;
#X connect 21 0 29 0;
#X connect 22 0 28 0;
#X connect 23 0 19 0;
#X connect 24 0 18 0;
#X connect 25 1 17 0;
#X connect 26 0 25 0;
#X connect 27 0 15 0;
#X connect 28 0 8 1;
#X connect 28 0 31 0;
#X connect 29 0 12 1;
#X connect 29 0 20 0;
#X connect 30 0 16 0;
#X connect 32 0 37 0;
#X connect 32 1 37 1;
#X connect 33 0 37 0;
#X connect 34 0 33 0;
#X connect 34 0 32 0;
#X connect 35 0 32 1;
#X connect 35 0 38 0;
#X connect 38 0 37 1;
