#N canvas 797 155 319 427 12;
#X obj 57 266 list append;
#X obj 156 266 t a;
#X obj 57 342 t a a;
#X obj 57 31 inlet;
#X obj 131 31 inlet;
#X obj 131 65 route float clear;
#X obj 57 376 outlet;
#X obj 131 199 t f f;
#N canvas 0 25 450 300 zero 0;
#X obj 116 112 until;
#X obj 116 174 list append;
#X msg 190 112 bang;
#X obj 79 79 t b f b;
#X obj 116 219 spigot 0;
#X msg 253 175 0;
#X obj 39 112 t b b;
#X msg 71 174 1;
#X msg 116 143 0;
#X obj 214 175 t a;
#X obj 79 39 inlet;
#X obj 116 258 outlet;
#X text 146 37 generate n length list of 0s;
#X connect 0 0 8 0;
#X connect 1 0 4 0;
#X connect 1 0 9 0;
#X connect 2 0 1 1;
#X connect 2 0 5 0;
#X connect 3 0 6 0;
#X connect 3 1 0 0;
#X connect 3 2 2 0;
#X connect 4 0 11 0;
#X connect 5 0 4 1;
#X connect 6 0 1 0;
#X connect 6 1 7 0;
#X connect 7 0 4 1;
#X connect 8 0 1 0;
#X connect 9 0 1 1;
#X connect 10 0 3 0;
#X restore 131 233 pd zero list;
#X obj 131 168 f \$1;
#X msg 189 136 bang;
#X obj 206 102 loadbang;
#X obj 57 306 list split;
#X connect 0 0 1 0;
#X connect 0 0 12 0;
#X connect 1 0 0 1;
#X connect 2 0 6 0;
#X connect 2 1 0 1;
#X connect 3 0 0 0;
#X connect 4 0 5 0;
#X connect 5 0 9 0;
#X connect 5 1 10 0;
#X connect 7 0 8 0;
#X connect 7 1 12 1;
#X connect 8 0 0 1;
#X connect 9 0 7 0;
#X connect 10 0 9 0;
#X connect 11 0 10 0;
#X connect 12 0 2 0;
