#N canvas 82 76 587 430 12;
#X declare -path ./lib;
#X obj 60 29 r #brightness;
#X obj 60 66 unpack;
#X floatatom 60 140 6 0 0 0 norm - -;
#X floatatom 99 106 6 0 0 0 raw - -;
#X text 114 139 0 - 1;
#X text 154 105 EXIF -16 - 16?;
#X text 175 28 input: brightness values;
#X text 185 371 output: stereo;
#X obj 410 30 declare -path ./lib;
#X obj 65 372 stereoout~;
#X connect 0 0 1 0;
#X connect 1 0 2 0;
#X connect 1 1 3 0;
