#N canvas 82 76 450 475 12;
#X obj 60 29 r #brightness;
#X obj 60 66 unpack;
#X floatatom 60 140 6 0 0 0 norm - -;
#X floatatom 99 106 6 0 0 0 raw - -;
#X text 114 139 0 - 1;
#X text 154 105 EXIF -16 - 16?;
#X text 175 28 input: brightness values;
#X obj 107 377 dac~;
#X text 163 378 output: stereo;
#X obj 198 262 r #volume;
#X obj 198 293 line~;
#X obj 65 333 *~;
#X obj 286 262 loadbang;
#X msg 286 287 1 100;
#X obj 180 333 *~;
#X connect 0 0 1 0;
#X connect 1 0 2 0;
#X connect 1 1 3 0;
#X connect 9 0 10 0;
#X connect 10 0 11 1;
#X connect 10 0 14 1;
#X connect 11 0 7 0;
#X connect 12 0 13 0;
#X connect 13 0 10 0;
#X connect 14 0 7 1;
