#N canvas 65 139 782 285 12;
#X obj 38 179 qlister;
#X msg 38 143 read \$1;
#X msg 127 143 play \$1;
#X obj 127 52 tgl 30 0 empty \$0-play play 4 15 0 10 #c4fcc4 #000000
#000000 0 1;
#X obj 38 52 bng 30 250 50 0 empty empty open 4 15 0 10 #dcdcdc #000000
#000000;
#X obj 435 23 cnv 15 320 240 empty \$0-display empty 20 12 0 14 #494949
#494949 0;
#X obj 227 52 r #brightness;
#X obj 227 102 unpack;
#X floatatom 227 179 6 0 0 0 norm - - 0;
#X floatatom 266 143 6 0 0 0 raw - - 0;
#N canvas 0 25 300 358 display 0;
#X obj 67 296 s \$0-display;
#X obj 67 203 makefilename %02x;
#X obj 67 31 inlet;
#X obj 67 174 * 255;
#X msg 67 234 symbol #\$1\$1\$1;
#X msg 67 265 color \$1 \$1 \$1;
#X obj 67 58 * 100;
#X obj 67 85 int;
#X obj 67 113 change;
#X obj 67 143 / 100;
#X text 126 112 ignore close values;
#X connect 1 0 4 0;
#X connect 2 0 6 0;
#X connect 3 0 1 0;
#X connect 4 0 5 0;
#X connect 5 0 0 0;
#X connect 6 0 7 0;
#X connect 7 0 8 0;
#X connect 8 0 9 0;
#X connect 9 0 3 0;
#X restore 227 210 pd display;
#X text 25 18 qlist playback;
#X text 223 18 brightness receiver;
#X text 281 178 0 - 1;
#X obj 108 179 print;
#N canvas 0 25 414 243 openpanel 0;
#X obj 49 100 pdcontrol;
#X msg 49 70 dir;
#X obj 49 162 openpanel;
#X obj 49 131 makefilename %s/test\ data;
#X obj 49 38 inlet;
#X obj 49 196 outlet;
#X text 119 39 open in "./test data" directory;
#X connect 0 0 3 0;
#X connect 1 0 0 0;
#X connect 2 0 5 0;
#X connect 3 0 2 0;
#X connect 4 0 1 0;
#X restore 38 102 pd openpanel;
#X text 321 142 EXIF -16 - 16?;
#X obj 38 210 s \$0-done;
#N canvas 68 448 536 248 wav 0;
#N canvas 121 146 786 349 record 0;
#X obj 117 169 catch~ left;
#X obj 221 169 catch~ right;
#X msg 81 132 open \$1 \, start;
#X obj 111 217 writesf~ 2;
#X msg 221 131 stop;
#X obj 81 24 inlet;
#X obj 81 56 sel 1 0;
#X obj 197 23 inlet;
#X msg 281 109 set 0;
#X obj 281 135 s \$0-record;
#X obj 33 218 s \$0-play;
#X msg 29 177 1;
#X obj 22 121 t b a;
#X obj 221 62 r \$0-done;
#X obj 374 136 s \$0-play;
#X msg 374 106 set 0;
#X obj 81 96 symbol recording.wav;
#X obj 513 78 loadbang;
#X obj 513 147 s \$0-filename;
#X msg 513 111 set recording.wav;
#X connect 0 0 3 0;
#X connect 1 0 3 1;
#X connect 2 0 3 0;
#X connect 4 0 3 0;
#X connect 5 0 6 0;
#X connect 6 0 16 0;
#X connect 6 1 4 0;
#X connect 7 0 16 1;
#X connect 8 0 9 0;
#X connect 11 0 10 0;
#X connect 12 0 11 0;
#X connect 12 1 2 0;
#X connect 13 0 4 0;
#X connect 13 0 8 0;
#X connect 13 0 15 0;
#X connect 15 0 14 0;
#X connect 16 0 12 0;
#X connect 17 0 19 0;
#X connect 19 0 18 0;
#X restore 23 93 pd record;
#X obj 23 55 tgl 30 0 empty \$0-record rec 4 15 0 10 #ffc7c6 #000000
#000000 0 1;
#X symbolatom 83 56 20 0 0 0 - \$0-filename - 0;
#X text 17 25 wav file recorder;
#X text 17 148 2 open txt file in qlister;
#X text 17 127 1 open sound scene main.pd;
#X text 17 169 3 enter filename above (click on box \, type name +
.wav \, hit enter), f 67;
#X text 17 190 4 click record button;
#X text 17 211 5 wait until playback is finished;
#X text 258 53 note: record requires that sound scene uses [stereooutput~]
, f 32;
#X connect 1 0 0 0;
#X connect 2 0 0 1;
#X restore 37 244 pd wav recorder;
#X text 153 245 <- click to open;
#X connect 0 0 17 0;
#X connect 1 0 0 0;
#X connect 1 0 14 0;
#X connect 2 0 0 0;
#X connect 3 0 2 0;
#X connect 4 0 15 0;
#X connect 6 0 7 0;
#X connect 7 0 8 0;
#X connect 7 1 9 0;
#X connect 8 0 10 0;
#X connect 15 0 1 0;
