#N canvas 41 271 782 294 12;
#X obj 38 179 qlister;
#X msg 38 139 read \$1;
#X msg 127 139 play \$1;
#X obj 127 52 tgl 30 0 empty \$0-play play 4 15 0 10 -204786 -1 -1
0 1;
#X obj 38 243 s \$0-play;
#X msg 38 213 set 0;
#X obj 38 52 bng 30 250 50 0 empty empty open 4 15 0 10 -228856 -1
-1;
#X obj 435 23 cnv 15 320 240 empty \$0-display empty 20 12 0 14 -253822
-253822 0;
#X obj 228 102 r #brightness;
#X obj 228 139 unpack;
#X floatatom 228 213 6 0 0 0 norm - -;
#X floatatom 267 179 6 0 0 0 raw - -;
#N canvas 0 25 300 358 display 0;
#X obj 67 296 s \$0-display;
#X obj 67 203 makefilename %02x;
#X obj 67 31 inlet;
#X obj 67 174 * 255;
#X msg 67 234 symbol #\$1\$1\$1;
#X msg 67 265 color \$1 \$1 \$1;
#X obj 67 58 * 100;
#X obj 67 85 int;
#X obj 67 113 change;
#X obj 67 143 / 100;
#X text 126 112 ignore close values;
#X connect 1 0 4 0;
#X connect 2 0 6 0;
#X connect 3 0 1 0;
#X connect 4 0 5 0;
#X connect 5 0 0 0;
#X connect 6 0 7 0;
#X connect 7 0 8 0;
#X connect 8 0 9 0;
#X connect 9 0 3 0;
#X restore 228 242 pd display;
#X text 25 18 qlist playback;
#X text 220 63 brightness receiver;
#X text 282 212 0 - 1;
#X obj 108 179 print;
#N canvas 0 25 414 243 openpanel 0;
#X obj 49 100 pdcontrol;
#X msg 49 70 dir;
#X obj 49 162 openpanel;
#X obj 49 131 makefilename %s/test\ data;
#X obj 49 38 inlet;
#X obj 49 196 outlet;
#X text 119 39 open in "./test data" directory;
#X connect 0 0 3 0;
#X connect 1 0 0 0;
#X connect 2 0 5 0;
#X connect 3 0 2 0;
#X connect 4 0 1 0;
#X restore 38 102 pd openpanel;
#X text 322 179 EXIF -16 - 16?;
#X connect 0 0 5 0;
#X connect 1 0 0 0;
#X connect 1 0 16 0;
#X connect 2 0 0 0;
#X connect 3 0 2 0;
#X connect 5 0 4 0;
#X connect 6 0 17 0;
#X connect 8 0 9 0;
#X connect 9 0 10 0;
#X connect 9 1 11 0;
#X connect 10 0 12 0;
#X connect 17 0 1 0;
