#N canvas 419 25 589 946 12;
#X declare -path ./lib;
#X obj 61 58 unpack;
#X floatatom 61 140 6 0 0 0 norm - -;
#X floatatom 100 106 6 0 0 0 raw - -;
#X text 115 139 0 - 1;
#X text 155 105 EXIF -16 - 16?;
#X text 178 28 input: brightness values;
#X obj 138 239 hsl 128 15 0 1 0 0 empty empty empty -2 -8 0 10 -262144
-1 -1 0 1;
#X obj 61 19 r #brightness;
#N canvas 804 43 987 933 noisesource 0;
#X obj 80 533 *~;
#X obj 64 326 d-smooth~;
#X obj 85 28 inlet;
#X obj 186 897 outlet~;
#X obj 162 748 d-biquad~;
#X obj 188 829 d-biquad~;
#X obj 212 617 d-biquadcalc-highpass 4000 100;
#X obj 211 515 loadbang;
#X msg 206 555 200 100;
#X obj 267 356 vsl 15 128 100 20000 1 0 empty empty empty 0 -9 0 10
-262144 -1 -1 0 1;
#X obj 265 222 d-1-;
#X obj 252 743 d-biquadcalc-lowpass 4000 200;
#X obj 303 377 vsl 15 128 100 20000 1 0 empty empty empty 0 -9 0 10
-262144 -1 -1 0 1;
#X obj 306 516 t f f;
#X obj 297 577 pack f f;
#X obj 147 342 noise~;
#X obj 347 396 t f f;
#X obj 83 142 d-sq;
#X obj 268 317 f;
#X obj 256 75 t f f;
#X obj 743 195 hsl 128 15 0 1 0 0 empty empty empty -2 -8 0 10 -262144
-1 -1 0 1;
#X obj 619 511 *~;
#X obj 740 451 d-smooth~;
#X obj 136 388 *~;
#X obj 131 418 *~;
#X obj 129 450 *~;
#X obj 124 484 *~;
#X obj 745 289 d-sq;
#X obj 80 104 d-lpf-latching 0.3 0.8;
#X obj 304 339 * 0.25;
#X obj 740 354 * 0.3;
#X obj 744 322 d-sq;
#X obj 801 349 hsl 128 15 0 1 0 0 empty empty empty -2 -8 0 10 -262144
-1 -1 0 1;
#X obj 647 286 d-1-;
#N canvas 8 43 1134 994 oscs 0;
#X obj 736 703 osc~ 101;
#X obj 873 701 osc~ 102.333;
#X obj 397 581 phasor~ 50;
#X obj 351 706 phasor~ 50.6767;
#X floatatom 407 451 5 0 0 0 - - -;
#X obj 397 541 mtof;
#X obj 759 14 inlet;
#X obj 322 546 +;
#X obj 336 653 d-smooth~;
#X floatatom 280 623 5 0 0 0 - - -;
#X obj 336 619 mtof;
#X floatatom 676 493 5 0 0 0 - - -;
#X obj 732 628 mtof;
#X obj 876 538 +;
#X obj 890 645 d-smooth~;
#X floatatom 834 615 5 0 0 0 - - -;
#X obj 890 611 mtof;
#X obj 638 580 phasor~ 50;
#X obj 592 705 phasor~ 50.6767;
#X obj 638 540 mtof;
#X obj 563 545 +;
#X obj 577 652 d-smooth~;
#X floatatom 521 622 5 0 0 0 - - -;
#X obj 577 618 mtof;
#X floatatom 583 495 5 0 0 0 - - -;
#X obj 366 318 bng 15 250 50 0 empty empty empty 17 7 0 10 -262144
-1 -1;
#X obj 758 237 d-sq;
#X obj 754 280 * 5;
#N canvas 0 25 330 397 newmode 0;
#X msg 62 224 lydian;
#X msg 158 223 locrian;
#X msg 95 250 dorian;
#X msg 113 190 mixolydian;
#X msg 78 164 ionian;
#X msg 195 243 phrygian;
#X msg 205 270 aeolian;
#X obj 110 119 sel 0 1 2 3 4 5 6;
#X obj 113 86 random 7;
#X obj 113 31 inlet;
#X obj 113 55 t b;
#X obj 156 323 outlet;
#X connect 0 0 11 0;
#X connect 1 0 11 0;
#X connect 2 0 11 0;
#X connect 3 0 11 0;
#X connect 4 0 11 0;
#X connect 5 0 11 0;
#X connect 6 0 11 0;
#X connect 7 0 4 0;
#X connect 7 1 3 0;
#X connect 7 2 0 0;
#X connect 7 3 2 0;
#X connect 7 4 1 0;
#X connect 7 5 5 0;
#X connect 7 6 6 0;
#X connect 8 0 7 0;
#X connect 9 0 10 0;
#X connect 10 0 8 0;
#X restore 526 311 pd newmode;
#X obj 500 205 bng 15 250 50 0 empty empty empty 17 7 0 10 -262144
-1 -1;
#X obj 651 320 random 8;
#X obj 490 363 print;
#X obj 135 144 > 45;
#X msg 135 199 0;
#X msg 169 199 12;
#X obj 121 232 -;
#X obj 116 109 t f f;
#X text 343 365 root;
#X obj 304 367 f 38;
#X obj 155 320 print nextroot;
#X floatatom 655 449 5 0 0 0 - - -;
#X obj 668 284 bng 15 250 50 0 empty empty empty 17 7 0 10 -262144
-1 -1;
#X obj 712 451 s \$0-nextroot;
#X obj 186 36 r \$0-nextroot;
#X obj 566 183 bng 15 250 50 0 empty empty empty 17 7 0 10 -262144
-1 -1;
#X obj 134 170 sel 0 1;
#X obj 409 422 d-modes lydian 38 0 ---------------;
#X obj 527 283 t b b;
#X obj 231 225 d-wrap 25 49;
#X obj 629 847 *~;
#X obj 627 880 outlet~;
#X obj 795 769 loadbang;
#X obj 795 793 1;
#X obj 420 278 s \$0-oscvol;
#X msg 420 253 0;
#X msg 458 253 1;
#X obj 898 791 r \$0-oscvol;
#X obj 523 82 > 0.5;
#X msg 660 147 clear \, bang;
#X obj 666 209 bng 15 250 50 0 empty empty empty 17 7 0 10 -262144
-1 -1;
#X obj 524 116 sel 1 0;
#X obj 665 104 loadbang;
#X obj 687 209 print forcedChordChange;
#X obj 461 146 tgl 15 0 empty empty empty 17 7 0 10 -262144 -1 -1 0
1;
#X obj 694 826 d-smooth~ 7000;
#X obj 525 224 del 7000;
#X obj 525 147 d-debounce 15000;
#X obj 661 177 pipe 60000;
#X text 773 151 force a chord change every 60 seconds;
#X connect 0 0 49 0;
#X connect 1 0 49 0;
#X connect 2 0 49 0;
#X connect 3 0 49 0;
#X connect 4 0 5 0;
#X connect 4 0 7 1;
#X connect 5 0 2 0;
#X connect 6 0 26 0;
#X connect 6 0 57 0;
#X connect 7 0 9 0;
#X connect 7 0 10 0;
#X connect 8 0 3 0;
#X connect 10 0 8 0;
#X connect 11 0 12 0;
#X connect 11 0 13 1;
#X connect 12 0 0 0;
#X connect 13 0 15 0;
#X connect 13 0 16 0;
#X connect 14 0 1 0;
#X connect 16 0 14 0;
#X connect 17 0 49 0;
#X connect 18 0 49 0;
#X connect 19 0 17 0;
#X connect 20 0 22 0;
#X connect 20 0 23 0;
#X connect 21 0 18 0;
#X connect 23 0 21 0;
#X connect 24 0 20 1;
#X connect 25 0 46 0;
#X connect 26 0 27 0;
#X connect 27 0 7 0;
#X connect 27 0 13 0;
#X connect 27 0 20 0;
#X connect 28 0 31 0;
#X connect 28 0 46 1;
#X connect 30 0 46 2;
#X connect 32 0 45 0;
#X connect 33 0 35 1;
#X connect 34 0 35 1;
#X connect 36 0 35 0;
#X connect 36 1 32 0;
#X connect 38 0 46 0;
#X connect 41 0 30 0;
#X connect 43 0 48 0;
#X connect 44 0 65 0;
#X connect 45 0 33 0;
#X connect 45 1 34 0;
#X connect 46 0 4 0;
#X connect 46 2 19 0;
#X connect 46 4 11 0;
#X connect 46 6 24 0;
#X connect 46 8 40 0;
#X connect 46 8 42 0;
#X connect 47 0 28 0;
#X connect 47 1 30 0;
#X connect 48 0 38 0;
#X connect 48 0 39 0;
#X connect 49 0 50 0;
#X connect 51 0 52 0;
#X connect 52 0 64 0;
#X connect 54 0 53 0;
#X connect 55 0 53 0;
#X connect 56 0 64 0;
#X connect 57 0 60 0;
#X connect 57 0 63 0;
#X connect 58 0 67 0;
#X connect 59 0 66 0;
#X connect 60 0 58 0;
#X connect 60 0 66 0;
#X connect 61 0 58 0;
#X connect 64 0 49 1;
#X connect 65 0 47 0;
#X connect 65 0 55 0;
#X connect 65 0 58 0;
#X connect 66 0 29 0;
#X connect 66 0 54 0;
#X connect 66 0 65 0;
#X connect 67 0 59 0;
#X connect 67 0 62 0;
#X restore 620 344 pd oscs;
#X obj 738 160 d-lpf-latching 0.94 0.998;
#X obj 614 836 outlet~;
#X obj 636 726 d-bqlpf~ 500 50;
#X obj 685 614 d-map 0 1 6000 300;
#X obj 80 594 *~ 2;
#X obj 265 287 + 400;
#X obj 263 135 d-lpf-latching 0.7 0.93;
#X obj 835 612 d-map 0 1 400 50;
#X obj 83 250 d-map 0 1 0.01 1;
#X obj 350 546 d-map 0 5000 100 3;
#X obj 264 259 * 16000;
#X floatatom 405 480 5 0 0 0 - - -;
#X obj 382 441 d-map 0 5000 200 30;
#X floatatom 372 577 5 0 0 0 - - -;
#X floatatom 458 400 5 0 0 0 - - -;
#X obj 458 365 d-map -1 1 30 100;
#X obj 458 332 d-osc 0.03;
#X obj 473 488 d-osc 0.038;
#X obj 473 516 d-map -1 1 3 200;
#X floatatom 498 548 5 0 0 0 - - -;
#X obj 710 121 max 0.3;
#X msg 401 19 clear \, 0;
#X text 88 205 kill sound when input disconnects;
#X obj 408 74 s \$0-kill;
#X obj 17 274 r \$0-kill;
#X msg 15 299 0, f 2;
#X obj 825 387 r \$0-kill;
#X msg 823 412 0, f 2;
#X obj 401 50 pipe 5000;
#X obj 743 232 max 0.35;
#X obj 741 260 d-map 0.35 1 0 1;
#X floatatom 668 312 5 0 0 0 - - -;
#X text 487 77 prevent stuck notes on no input;
#X connect 0 0 39 0;
#X connect 1 0 0 0;
#X connect 2 0 19 0;
#X connect 2 0 28 0;
#X connect 2 0 56 0;
#X connect 4 0 5 0;
#X connect 5 0 3 0;
#X connect 6 0 4 1;
#X connect 7 0 8 0;
#X connect 8 0 6 0;
#X connect 9 0 11 0;
#X connect 10 0 45 0;
#X connect 11 0 5 1;
#X connect 12 0 13 0;
#X connect 13 0 14 0;
#X connect 13 1 44 0;
#X connect 14 0 6 0;
#X connect 15 0 23 0;
#X connect 15 0 23 1;
#X connect 16 1 47 0;
#X connect 17 0 43 0;
#X connect 18 0 9 0;
#X connect 18 0 29 0;
#X connect 19 0 41 0;
#X connect 19 1 55 0;
#X connect 20 0 64 0;
#X connect 21 0 37 0;
#X connect 22 0 21 1;
#X connect 23 0 24 0;
#X connect 23 0 24 1;
#X connect 24 0 25 0;
#X connect 24 0 25 1;
#X connect 25 0 26 0;
#X connect 25 0 26 1;
#X connect 26 0 0 1;
#X connect 27 0 31 0;
#X connect 28 0 17 0;
#X connect 29 0 12 0;
#X connect 29 0 16 0;
#X connect 30 0 22 0;
#X connect 31 0 30 0;
#X connect 31 0 32 0;
#X connect 33 0 34 0;
#X connect 34 0 21 0;
#X connect 35 0 20 0;
#X connect 37 0 36 0;
#X connect 38 0 37 1;
#X connect 39 0 4 0;
#X connect 40 0 18 0;
#X connect 41 0 10 0;
#X connect 42 0 37 2;
#X connect 43 0 1 0;
#X connect 44 0 14 1;
#X connect 44 0 48 0;
#X connect 45 0 40 0;
#X connect 47 0 11 1;
#X connect 47 0 46 0;
#X connect 50 0 47 2;
#X connect 50 0 49 0;
#X connect 51 0 50 0;
#X connect 52 0 53 0;
#X connect 53 0 44 2;
#X connect 53 0 54 0;
#X connect 55 0 35 0;
#X connect 56 0 63 0;
#X connect 59 0 60 0;
#X connect 60 0 1 0;
#X connect 61 0 62 0;
#X connect 62 0 22 0;
#X connect 63 0 58 0;
#X connect 64 0 65 0;
#X connect 65 0 38 0;
#X connect 65 0 42 0;
#X connect 65 0 27 0;
#X connect 65 0 33 0;
#X connect 65 0 66 0;
#X restore 135 274 pd noisesource;
#X obj 135 309 d-pan~ 0.3;
#X obj 243 311 d-pan~ 0.7;
#X obj 87 581 d-reverb2~ 42 85 3000 10 45 30;
#X obj 20 426 *~ 0.5;
#X obj 62 467 *~ 0.6;
#X obj 87 907 dac~, f 5;
#X obj 135 208 d-clip 0 1;
#X floatatom 300 262 5 0 0 0 - - -;
#X obj 300 235 d-lpf 0.9;
#X obj 135 179 d-map 2.5 7 0 1;
#X obj 135 367 d-fbdelay~ 803 0.98 0.53 15 380 0.9 0.02 0.8;
#X obj 264 789 d-anaclip~;
#X obj 87 789 d-anaclip~;
#X obj 87 756 d-compress~ 2 10 0;
#X obj 264 756 d-compress~ 2 10 0;
#X text 310 722 make the output sound nice and full;
#X obj 264 723 *~ 2;
#X obj 87 723 *~ 2;
#X obj 427 17 declare -path ./lib;
#X obj 264 821 hip~ 5;
#X obj 375 790 r #volume;
#X obj 375 821 line~;
#X obj 264 873 *~;
#X obj 463 790 loadbang;
#X msg 463 815 1 100;
#X obj 87 821 hip~ 5;
#X obj 87 873 *~;
#X connect 0 0 1 0;
#X connect 0 1 2 0;
#X connect 0 1 18 0;
#X connect 6 0 8 0;
#X connect 7 0 0 0;
#X connect 8 0 9 0;
#X connect 8 0 12 0;
#X connect 8 1 10 0;
#X connect 8 1 13 0;
#X connect 9 0 19 0;
#X connect 9 1 19 1;
#X connect 10 0 19 0;
#X connect 10 1 19 1;
#X connect 11 0 26 0;
#X connect 11 1 25 0;
#X connect 12 0 11 0;
#X connect 12 0 11 1;
#X connect 13 0 11 0;
#X connect 13 0 11 1;
#X connect 15 0 6 0;
#X connect 15 0 17 0;
#X connect 17 0 16 0;
#X connect 18 0 15 0;
#X connect 19 0 11 0;
#X connect 19 1 11 1;
#X connect 20 0 28 0;
#X connect 21 0 34 0;
#X connect 22 0 21 0;
#X connect 23 0 20 0;
#X connect 25 0 23 0;
#X connect 26 0 22 0;
#X connect 28 0 31 0;
#X connect 29 0 30 0;
#X connect 30 0 31 1;
#X connect 30 0 35 1;
#X connect 31 0 14 1;
#X connect 32 0 33 0;
#X connect 33 0 30 0;
#X connect 34 0 35 0;
#X connect 35 0 14 0;
