#N canvas 441 188 417 300 12;
#X obj 64 260 dac~;
#X obj 127 128 r #volume;
#X obj 127 181 line~;
#X obj 39 213 *~;
#X obj 207 128 loadbang;
#X msg 207 154 1 100;
#X obj 109 213 *~;
#X obj 39 27 inlet~;
#X obj 109 27 inlet~;
#X obj 39 80 hip~ 5;
#X obj 109 80 hip~ 5;
#X text 170 80 no dc please;
#X text 179 181 volume fading for transitions;
#X obj 110 260 throw~ left;
#X obj 202 260 throw~ right;
#X connect 1 0 2 0;
#X connect 2 0 3 1;
#X connect 2 0 6 1;
#X connect 3 0 0 0;
#X connect 4 0 5 0;
#X connect 5 0 2 0;
#X connect 6 0 0 1;
#X connect 7 0 9 0;
#X connect 8 0 10 0;
#X connect 9 0 3 0;
#X connect 9 0 13 0;
#X connect 10 0 6 0;
#X connect 10 0 14 0;
